SA Beginner-Regular.ufo
<glyph name="numbersign" format="2">
  <advance width="728"/>
  <unicode hex="0023"/>
  <outline>
    <contour>
      <point x="199" y="0" type="curve" smooth="yes"/>
      <point x="212" y="-1"/>
      <point x="226" y="8"/>
      <point x="229" y="28" type="curve" smooth="yes"/>
      <point x="284" y="543" type="line" smooth="yes"/>
      <point x="286" y="559"/>
      <point x="274" y="568"/>
      <point x="261" y="568" type="curve" smooth="yes"/>
      <point x="248" y="568"/>
      <point x="235" y="560"/>
      <point x="233" y="543" type="curve" smooth="yes"/>
      <point x="178" y="28" type="line" smooth="yes"/>
      <point x="176" y="10"/>
      <point x="187" y="0"/>
    </contour>
    <contour>
      <point x="457" y="0" type="curve" smooth="yes"/>
      <point x="470" y="0"/>
      <point x="483" y="9"/>
      <point x="485" y="28" type="curve" smooth="yes"/>
      <point x="540" y="543" type="line" smooth="yes"/>
      <point x="542" y="559"/>
      <point x="530" y="567"/>
      <point x="518" y="568" type="curve" smooth="yes"/>
      <point x="505" y="568"/>
      <point x="491" y="560"/>
      <point x="489" y="543" type="curve" smooth="yes"/>
      <point x="434" y="28" type="line" smooth="yes"/>
      <point x="432" y="9"/>
      <point x="444" y="-1"/>
    </contour>
    <contour>
      <point x="76" y="147" type="curve" smooth="yes"/>
      <point x="621" y="147" type="line" smooth="yes"/>
      <point x="638" y="147"/>
      <point x="646" y="159"/>
      <point x="645" y="170" type="curve" smooth="yes"/>
      <point x="644" y="181"/>
      <point x="636" y="192"/>
      <point x="618" y="192" type="curve" smooth="yes"/>
      <point x="73" y="192" type="line" smooth="yes"/>
      <point x="55" y="192"/>
      <point x="47" y="181"/>
      <point x="48" y="170" type="curve" smooth="yes"/>
      <point x="49" y="159"/>
      <point x="59" y="147"/>
    </contour>
    <contour>
      <point x="101" y="384" type="curve" smooth="yes"/>
      <point x="645" y="384" type="line" smooth="yes"/>
      <point x="663" y="384"/>
      <point x="671" y="395"/>
      <point x="671" y="406" type="curve" smooth="yes"/>
      <point x="670" y="417"/>
      <point x="660" y="429"/>
      <point x="642" y="429" type="curve" smooth="yes"/>
      <point x="98" y="429" type="line" smooth="yes"/>
      <point x="80" y="429"/>
      <point x="72" y="417"/>
      <point x="73" y="406" type="curve" smooth="yes"/>
      <point x="73" y="395"/>
      <point x="83" y="384"/>
    </contour>
  </outline>
</glyph>
<glyph name="dollar" format="2">
	<advance width="451"/>
	<unicode hex="0024"/>
	<outline>
		<contour>
			<point x="154" y="-4" type="curve" smooth="yes"/>
			<point x="270" y="-4"/>
			<point x="361" y="35"/>
			<point x="370" y="124" type="curve" smooth="yes"/>
			<point x="378" y="202"/>
			<point x="316" y="254"/>
			<point x="236" y="300" type="curve" smooth="yes"/>
			<point x="154" y="347"/>
			<point x="103" y="369"/>
			<point x="109" y="426" type="curve" smooth="yes"/>
			<point x="115" y="483"/>
			<point x="170" y="522"/>
			<point x="265" y="522" type="curve" smooth="yes"/>
			<point x="316" y="522"/>
			<point x="347" y="497"/>
			<point x="360" y="461" type="curve" smooth="yes"/>
			<point x="365" y="448"/>
			<point x="379" y="442"/>
			<point x="392" y="446" type="curve" smooth="yes"/>
			<point x="406" y="450"/>
			<point x="408" y="466"/>
			<point x="402" y="484" type="curve" smooth="yes"/>
			<point x="386" y="531"/>
			<point x="341" y="568"/>
			<point x="263" y="568" type="curve" smooth="yes"/>
			<point x="135" y="568"/>
			<point x="69" y="504"/>
			<point x="61" y="430" type="curve" smooth="yes"/>
			<point x="53" y="350"/>
			<point x="119" y="309"/>
			<point x="198" y="264" type="curve" smooth="yes"/>
			<point x="286" y="214"/>
			<point x="327" y="190"/>
			<point x="321" y="131" type="curve" smooth="yes"/>
			<point x="314" y="67"/>
			<point x="240" y="42"/>
			<point x="170" y="42" type="curve" smooth="yes"/>
			<point x="107" y="42"/>
			<point x="81" y="68"/>
			<point x="73" y="99" type="curve" smooth="yes"/>
			<point x="69" y="116"/>
			<point x="54" y="122"/>
			<point x="40" y="118" type="curve" smooth="yes"/>
			<point x="25" y="114"/>
			<point x="23" y="98"/>
			<point x="27" y="82" type="curve" smooth="yes"/>
			<point x="40" y="30"/>
			<point x="85" y="-4"/>
		</contour>
		<contour>
			<point x="185" y="-39" type="curve" smooth="yes"/>
			<point x="196" y="-39"/>
			<point x="208" y="-32"/>
			<point x="209" y="-17" type="curve" smooth="yes"/>
			<point x="273" y="585" type="line" smooth="yes"/>
			<point x="275" y="601"/>
			<point x="261" y="611"/>
			<point x="247" y="611" type="curve" smooth="yes"/>
			<point x="236" y="611"/>
			<point x="225" y="605"/>
			<point x="223" y="590" type="curve" smooth="yes"/>
			<point x="159" y="-12" type="line" smooth="yes"/>
			<point x="157" y="-30"/>
			<point x="171" y="-39"/>
		</contour>
	</outline>
</glyph>
<glyph name="percent" format="2">
	<advance width="529"/>
	<unicode hex="0025"/>
	<outline>
		<contour>
			<point x="117" y="0" type="curve" smooth="yes"/>
			<point x="128" y="0"/>
			<point x="137" y="6"/>
			<point x="145" y="20" type="curve" smooth="yes"/>
			<point x="432" y="526" type="line" smooth="yes"/>
			<point x="443" y="546"/>
			<point x="426" y="560"/>
			<point x="411" y="560" type="curve" smooth="yes"/>
			<point x="400" y="560"/>
			<point x="391" y="553"/>
			<point x="382" y="537" type="curve" smooth="yes"/>
			<point x="95" y="31" type="line" smooth="yes"/>
			<point x="85" y="13"/>
			<point x="101" y="0"/>
		</contour>
		<contour>
			<point x="127" y="315" type="curve" smooth="yes"/>
			<point x="193" y="315"/>
			<point x="227" y="380"/>
			<point x="234" y="441" type="curve" smooth="yes"/>
			<point x="240" y="504"/>
			<point x="215" y="565"/>
			<point x="153" y="565" type="curve" smooth="yes"/>
			<point x="101" y="565"/>
			<point x="55" y="523"/>
			<point x="46" y="441" type="curve" smooth="yes"/>
			<point x="40" y="378"/>
			<point x="65" y="315"/>
		</contour>
		<contour>
			<point x="134" y="361" type="curve" smooth="yes"/>
			<point x="99" y="361"/>
			<point x="88" y="398"/>
			<point x="92" y="439" type="curve" smooth="yes"/>
			<point x="98" y="494"/>
			<point x="120" y="519"/>
			<point x="150" y="519" type="curve" smooth="yes"/>
			<point x="187" y="519"/>
			<point x="191" y="470"/>
			<point x="188" y="442" type="curve" smooth="yes"/>
			<point x="182" y="389"/>
			<point x="158" y="361"/>
		</contour>
		<contour>
			<point x="377" y="-4" type="curve" smooth="yes"/>
			<point x="443" y="-4"/>
			<point x="477" y="61"/>
			<point x="484" y="122" type="curve" smooth="yes"/>
			<point x="490" y="185"/>
			<point x="465" y="246"/>
			<point x="403" y="246" type="curve" smooth="yes"/>
			<point x="351" y="246"/>
			<point x="305" y="204"/>
			<point x="296" y="122" type="curve" smooth="yes"/>
			<point x="290" y="59"/>
			<point x="315" y="-4"/>
		</contour>
		<contour>
			<point x="384" y="42" type="curve" smooth="yes"/>
			<point x="349" y="42"/>
			<point x="338" y="79"/>
			<point x="342" y="120" type="curve" smooth="yes"/>
			<point x="348" y="175"/>
			<point x="370" y="200"/>
			<point x="400" y="200" type="curve" smooth="yes"/>
			<point x="437" y="200"/>
			<point x="441" y="151"/>
			<point x="438" y="123" type="curve" smooth="yes"/>
			<point x="432" y="70"/>
			<point x="408" y="42"/>
		</contour>
	</outline>
</glyph>
<glyph name="ampersand" format="2">
  <advance width="554"/>
  <unicode hex="0026"/>
  <outline>
    <contour>
      <point x="195.0" y="-4.0" type="curve" smooth="yes"/>
      <point x="295.0" y="-4.0"/>
      <point x="376" y="64"/>
      <point x="473" y="231" type="curve" smooth="yes"/>
      <point x="483" y="248"/>
      <point x="486" y="264"/>
      <point x="471" y="274" type="curve" smooth="yes"/>
      <point x="456" y="284"/>
      <point x="442" y="278"/>
      <point x="432" y="261" type="curve" smooth="yes"/>
      <point x="338" y="109"/>
      <point x="273.0" y="46.0"/>
      <point x="207.0" y="46.0" type="curve" smooth="yes"/>
      <point x="145" y="46"/>
      <point x="103" y="88"/>
      <point x="103" y="156" type="curve" smooth="yes"/>
      <point x="103" y="227"/>
      <point x="163" y="297"/>
      <point x="228" y="336" type="curve" smooth="yes"/>
      <point x="273" y="363" type="line" smooth="yes"/>
      <point x="381" y="428"/>
      <point x="429" y="491"/>
      <point x="429" y="556" type="curve" smooth="yes"/>
      <point x="429" y="613"/>
      <point x="370" y="650"/>
      <point x="310" y="650" type="curve" smooth="yes"/>
      <point x="210" y="650"/>
      <point x="137" y="585"/>
      <point x="137" y="520" type="curve" smooth="yes"/>
      <point x="137" y="463"/>
      <point x="186" y="390"/>
      <point x="208" y="353" type="curve" smooth="yes"/>
      <point x="406" y="22" type="line" smooth="yes"/>
      <point x="416" y="5"/>
      <point x="430" y="-5"/>
      <point x="446" y="4" type="curve" smooth="yes"/>
      <point x="461" y="12"/>
      <point x="458" y="33"/>
      <point x="445" y="55" type="curve" smooth="yes"/>
      <point x="250" y="383" type="line" smooth="yes"/>
      <point x="232" y="413"/>
      <point x="188" y="485"/>
      <point x="188" y="520" type="curve" smooth="yes"/>
      <point x="188" y="563"/>
      <point x="239" y="600"/>
      <point x="304" y="600" type="curve" smooth="yes"/>
      <point x="354" y="600"/>
      <point x="376" y="574"/>
      <point x="376" y="546" type="curve" smooth="yes"/>
      <point x="376" y="500"/>
      <point x="323" y="449"/>
      <point x="225" y="388" type="curve" smooth="yes"/>
      <point x="204" y="375" type="line" smooth="yes"/>
      <point x="120" y="323"/>
      <point x="48" y="243"/>
      <point x="48" y="154" type="curve" smooth="yes"/>
      <point x="48" y="56"/>
      <point x="106" y="-4"/>
    </contour>
  </outline>
</glyph>
<glyph name="quotesingle" format="2">
  <advance width="182"/>
  <unicode hex="0027"/>
  <outline>
    <contour>
      <point x="110" y="500" type="curve" smooth="yes"/>
      <point x="122" y="500"/>
      <point x="136" y="507"/>
      <point x="137" y="521" type="curve" smooth="yes"/>
      <point x="147" y="620" type="line" smooth="yes"/>
      <point x="148" y="640"/>
      <point x="136" y="650"/>
      <point x="122" y="650" type="curve" smooth="yes"/>
      <point x="110" y="650"/>
      <point x="98" y="642"/>
      <point x="96" y="628" type="curve" smooth="yes"/>
      <point x="85" y="528" type="line" smooth="yes"/>
      <point x="83" y="509"/>
      <point x="96" y="500"/>
    </contour>
  </outline>
</glyph>
<glyph name="parenleft" format="2">
  <advance width="354"/>
  <unicode hex="0028"/>
  <outline>
    <contour>
      <point x="182" y="-282" type="curve" smooth="yes"/>
      <point x="192" y="-298"/>
      <point x="204" y="-304"/>
      <point x="215" y="-297" type="curve" smooth="yes"/>
      <point x="225" y="-291"/>
      <point x="225" y="-277"/>
      <point x="216" y="-260" type="curve" smooth="yes"/>
      <point x="122" y="-87"/>
      <point x="88" y="64"/>
      <point x="103" y="200" type="curve" smooth="yes"/>
      <point x="116" y="323"/>
      <point x="198" y="490"/>
      <point x="307" y="607" type="curve" smooth="yes"/>
      <point x="323" y="625"/>
      <point x="324" y="639"/>
      <point x="317" y="646" type="curve" smooth="yes"/>
      <point x="308" y="654"/>
      <point x="290" y="651"/>
      <point x="272" y="633" type="curve" smooth="yes"/>
      <point x="150" y="507"/>
      <point x="65" y="330"/>
      <point x="52" y="200" type="curve" smooth="yes"/>
      <point x="37" y="64"/>
      <point x="72" y="-94"/>
    </contour>
  </outline>
</glyph>
<glyph name="asterisk" format="2">
  <advance width="302"/>
  <unicode hex="002A"/>
  <outline>
    <contour>
      <point x="86" y="491" type="curve" smooth="yes"/>
      <point x="91" y="483"/>
      <point x="103" y="481"/>
      <point x="119" y="490" type="curve" smooth="yes"/>
      <point x="249" y="574" type="line" smooth="yes"/>
      <point x="265" y="584"/>
      <point x="267" y="598"/>
      <point x="261" y="607" type="curve" smooth="yes"/>
      <point x="255" y="614"/>
      <point x="243" y="617"/>
      <point x="228" y="608" type="curve" smooth="yes"/>
      <point x="98" y="524" type="line" smooth="yes"/>
      <point x="82" y="513"/>
      <point x="79" y="499"/>
    </contour>
    <contour>
      <point x="252" y="492" type="curve" smooth="yes"/>
      <point x="256" y="499"/>
      <point x="255" y="511"/>
      <point x="242" y="521" type="curve" smooth="yes"/>
      <point x="128" y="606" type="line" smooth="yes"/>
      <point x="115" y="616"/>
      <point x="103" y="614"/>
      <point x="98" y="606" type="curve" smooth="yes"/>
      <point x="91" y="599"/>
      <point x="92" y="586"/>
      <point x="106" y="576" type="curve" smooth="yes"/>
      <point x="219" y="492" type="line" smooth="yes"/>
      <point x="232" y="482"/>
      <point x="245" y="484"/>
    </contour>
    <contour>
      <point x="161" y="448" type="curve" smooth="yes"/>
      <point x="171" y="447"/>
      <point x="183" y="456"/>
      <point x="185" y="475" type="curve" smooth="yes"/>
      <point x="200" y="623" type="line" smooth="yes"/>
      <point x="202" y="641"/>
      <point x="194" y="650"/>
      <point x="185" y="650" type="curve" smooth="yes"/>
      <point x="175" y="650"/>
      <point x="163" y="641"/>
      <point x="161" y="623" type="curve" smooth="yes"/>
      <point x="146" y="475" type="line" smooth="yes"/>
      <point x="144" y="458"/>
      <point x="152" y="450"/>
    </contour>
  </outline>
</glyph>
<glyph name="plus" format="2">
  <advance width="426"/>
  <unicode hex="002B"/>
  <outline>
    <contour>
      <point x="196" y="88" type="curve" smooth="yes"/>
      <point x="206" y="88"/>
      <point x="218" y="94"/>
      <point x="220" y="110" type="curve" smooth="yes"/>
      <point x="245" y="331" type="line" smooth="yes"/>
      <point x="247" y="349"/>
      <point x="238" y="361"/>
      <point x="226" y="362" type="curve" smooth="yes"/>
      <point x="216" y="363"/>
      <point x="203" y="357"/>
      <point x="201" y="341" type="curve" smooth="yes"/>
      <point x="177" y="120" type="line" smooth="yes"/>
      <point x="175" y="101"/>
      <point x="184" y="89"/>
    </contour>
    <contour>
      <point x="97" y="205" type="curve" smooth="yes"/>
      <point x="324" y="205" type="line" smooth="yes"/>
      <point x="342" y="205"/>
      <point x="351" y="217"/>
      <point x="351" y="228" type="curve" smooth="yes"/>
      <point x="351" y="239"/>
      <point x="342" y="250"/>
      <point x="324" y="250" type="curve" smooth="yes"/>
      <point x="97" y="250" type="line" smooth="yes"/>
      <point x="79" y="250"/>
      <point x="70" y="239"/>
      <point x="70" y="228" type="curve" smooth="yes"/>
      <point x="70" y="216"/>
      <point x="79" y="205"/>
    </contour>
  </outline>
</glyph>
<glyph name="comma" format="2">
  <advance width="181"/>
  <unicode hex="002C"/>
  <outline>
    <contour>
      <point x="44" y="-101" type="curve" smooth="yes"/>
      <point x="56" y="-103"/>
      <point x="71" y="-96"/>
      <point x="73" y="-76" type="curve" smooth="yes"/>
      <point x="83" y="18" type="line" smooth="yes"/>
      <point x="85" y="39"/>
      <point x="74" y="49"/>
      <point x="61" y="50" type="curve" smooth="yes"/>
      <point x="47" y="52"/>
      <point x="35" y="45"/>
      <point x="33" y="28" type="curve" smooth="yes"/>
      <point x="23" y="-71" type="line" smooth="yes"/>
      <point x="21" y="-89"/>
      <point x="32" y="-99"/>
    </contour>
  </outline>
</glyph>
<glyph name="hyphen" format="2">
  <advance width="338"/>
  <unicode hex="002D"/>
  <outline>
    <contour>
      <point x="80" y="177" type="curve" smooth="yes"/>
      <point x="228" y="177" type="line" smooth="yes"/>
      <point x="247" y="177"/>
      <point x="259" y="185"/>
      <point x="259" y="200" type="curve" smooth="yes"/>
      <point x="259" y="215"/>
      <point x="248" y="223"/>
      <point x="230" y="223" type="curve" smooth="yes"/>
      <point x="82" y="223" type="line" smooth="yes"/>
      <point x="63" y="223"/>
      <point x="51" y="215"/>
      <point x="51" y="200" type="curve" smooth="yes"/>
      <point x="51" y="185"/>
      <point x="62" y="177"/>
    </contour>
  </outline>
</glyph>
<glyph name="period" format="2">
	<advance width="162"/>
	<unicode hex="002E"/>
	<outline>
		<contour>
			<point x="47" y="-9" type="curve" smooth="yes"/>
			<point x="69" y="-9"/>
			<point x="86" y="11"/>
			<point x="86" y="32" type="curve" smooth="yes"/>
			<point x="86" y="53"/>
			<point x="69" y="71"/>
			<point x="47" y="71" type="curve" smooth="yes"/>
			<point x="25" y="71"/>
			<point x="6" y="53"/>
			<point x="6" y="32" type="curve" smooth="yes"/>
			<point x="6" y="11"/>
			<point x="25" y="-9"/>
		</contour>
	</outline>
</glyph>
<glyph name="slash" format="2">
	<advance width="336"/>
	<unicode hex="002F"/>
	<outline>
		<contour>
			<point x="45" y="-39" type="curve" smooth="yes"/>
			<point x="56" y="-39"/>
			<point x="67" y="-33"/>
			<point x="72" y="-19" type="curve" smooth="yes"/>
			<point x="299" y="616" type="line" smooth="yes"/>
			<point x="307" y="637"/>
			<point x="291" y="650"/>
			<point x="276" y="650" type="curve" smooth="yes"/>
			<point x="265" y="650"/>
			<point x="254" y="644"/>
			<point x="248" y="627" type="curve" smooth="yes"/>
			<point x="21" y="-8" type="line" smooth="yes"/>
			<point x="14" y="-27"/>
			<point x="29" y="-39"/>
		</contour>
	</outline>
</glyph>
<glyph name="zero" format="2">
  <advance width="467"/>
  <unicode hex="0030"/>
  <outline>
    <contour>
      <point x="202" y="-1" type="curve" smooth="yes"/>
      <point x="330" y="-1"/>
      <point x="401" y="122"/>
      <point x="419" y="300" type="curve" smooth="yes"/>
      <point x="430" y="408"/>
      <point x="405" y="567"/>
      <point x="254" y="567" type="curve" smooth="yes"/>
      <point x="109" y="567"/>
      <point x="54" y="430"/>
      <point x="36" y="252" type="curve" smooth="yes"/>
      <point x="22" y="117"/>
      <point x="76" y="-1"/>
    </contour>
    <contour>
      <point x="203" y="45" type="curve" smooth="yes"/>
      <point x="124" y="45"/>
      <point x="73" y="115"/>
      <point x="86" y="245" type="curve" smooth="yes"/>
      <point x="97" y="352"/>
      <point x="120" y="521"/>
      <point x="254" y="521" type="curve" smooth="yes"/>
      <point x="367" y="521"/>
      <point x="379" y="392"/>
      <point x="368" y="290" type="curve" smooth="yes"/>
      <point x="355" y="167"/>
      <point x="307" y="45"/>
    </contour>
  </outline>
</glyph>
<glyph name="one" format="2">
  <advance width="182"/>
  <unicode hex="0031"/>
  <outline>
    <contour>
      <point x="57" y="0" type="curve" smooth="yes"/>
      <point x="69" y="0"/>
      <point x="81" y="6"/>
      <point x="83" y="23" type="curve" smooth="yes"/>
      <point x="139" y="543" type="line" smooth="yes"/>
      <point x="141" y="560"/>
      <point x="129" y="568"/>
      <point x="116" y="568" type="curve" smooth="yes"/>
      <point x="103" y="568"/>
      <point x="90" y="561"/>
      <point x="88" y="543" type="curve" smooth="yes"/>
      <point x="33" y="28" type="line" smooth="yes"/>
      <point x="31" y="9"/>
      <point x="44" y="0"/>
    </contour>
  </outline>
</glyph>
<glyph name="two" format="2">
	<advance width="375"/>
	<unicode hex="0032"/>
	<outline>
		<contour>
			<point x="41" y="463" type="curve" smooth="yes"/>
			<point x="49" y="454"/>
			<point x="65" y="451"/>
			<point x="89" y="471" type="curve" smooth="yes"/>
			<point x="138" y="513"/>
			<point x="235" y="534"/>
			<point x="280" y="508" type="curve" smooth="yes"/>
			<point x="332" y="478"/>
			<point x="283" y="393"/>
			<point x="235" y="332" type="curve" smooth="yes"/>
			<point x="211" y="301"/>
			<point x="71" y="128"/>
			<point x="-8" y="35" type="curve" smooth="yes"/>
			<point x="-20" y="21"/>
			<point x="-8" y="0"/>
			<point x="10" y="0" type="curve" smooth="yes"/>
			<point x="23" y="0" type="line"/>
			<point x="68" y="49" type="line"/>
			<point x="120" y="115"/>
			<point x="248" y="263"/>
			<point x="282" y="306" type="curve" smooth="yes"/>
			<point x="375" y="423"/>
			<point x="382" y="504"/>
			<point x="300" y="552" type="curve" smooth="yes"/>
			<point x="228" y="594"/>
			<point x="110" y="557"/>
			<point x="50" y="505" type="curve" smooth="yes"/>
			<point x="28" y="486"/>
			<point x="32" y="473"/>
		</contour>
		<contour>
			<point x="306" y="25" type="curve" smooth="yes"/>
			<point x="305" y="37"/>
			<point x="299" y="50"/>
			<point x="279" y="50" type="curve" smooth="yes"/>
			<point x="28" y="50" type="line"/>
			<point x="10" y="0" type="line"/>
			<point x="282" y="0" type="line" smooth="yes"/>
			<point x="302" y="0"/>
			<point x="307" y="13"/>
		</contour>
	</outline>
</glyph>
<glyph name="three" format="2">
	<advance width="388"/>
	<unicode hex="0033"/>
	<outline>
		<contour>
			<point x="1" y="66" type="curve" smooth="yes"/>
			<point x="-5" y="56"/>
			<point x="-6" y="45"/>
			<point x="11" y="31" type="curve" smooth="yes"/>
			<point x="29" y="16"/>
			<point x="72" y="-4"/>
			<point x="139" y="-4" type="curve" smooth="yes"/>
			<point x="225" y="-4"/>
			<point x="339" y="49"/>
			<point x="350" y="154" type="curve" smooth="yes"/>
			<point x="360" y="255"/>
			<point x="283" y="313"/>
			<point x="209" y="320" type="curve"/>
			<point x="105" y="330" type="line" smooth="yes"/>
			<point x="96" y="331"/>
			<point x="85" y="320"/>
			<point x="85" y="307" type="curve" smooth="yes"/>
			<point x="85" y="294"/>
			<point x="95" y="282"/>
			<point x="105" y="282" type="curve" smooth="yes"/>
			<point x="148" y="282"/>
			<point x="182" y="277"/>
			<point x="219" y="272" type="curve" smooth="yes"/>
			<point x="275" y="264"/>
			<point x="306" y="217"/>
			<point x="300" y="153" type="curve" smooth="yes"/>
			<point x="292" y="76"/>
			<point x="197" y="42"/>
			<point x="137" y="42" type="curve" smooth="yes"/>
			<point x="79" y="42"/>
			<point x="58" y="54"/>
			<point x="38" y="68" type="curve" smooth="yes"/>
			<point x="21" y="80"/>
			<point x="8" y="76"/>
		</contour>
		<contour>
			<point x="54" y="498" type="curve" smooth="yes"/>
			<point x="61" y="488"/>
			<point x="74" y="484"/>
			<point x="91" y="496" type="curve" smooth="yes"/>
			<point x="111" y="510"/>
			<point x="132" y="522"/>
			<point x="199" y="522" type="curve" smooth="yes"/>
			<point x="259" y="522"/>
			<point x="311" y="500"/>
			<point x="304" y="437" type="curve" smooth="yes"/>
			<point x="299" y="391"/>
			<point x="264" y="348"/>
			<point x="219" y="341" type="curve" smooth="yes"/>
			<point x="182" y="335"/>
			<point x="148" y="330"/>
			<point x="105" y="330" type="curve"/>
			<point x="105" y="282" type="line"/>
			<point x="209" y="292" type="line"/>
			<point x="278" y="299"/>
			<point x="345" y="352"/>
			<point x="354" y="436" type="curve" smooth="yes"/>
			<point x="364" y="526"/>
			<point x="278" y="568"/>
			<point x="201" y="568" type="curve" smooth="yes"/>
			<point x="125" y="568"/>
			<point x="82" y="548"/>
			<point x="64" y="533" type="curve" smooth="yes"/>
			<point x="47" y="519"/>
			<point x="48" y="508"/>
		</contour>
	</outline>
</glyph>
<glyph name="four" format="2">
  <advance width="434"/>
  <unicode hex="0034"/>
  <outline>
    <contour>
      <point x="84" y="220" type="line"/>
      <point x="118" y="540" type="line" smooth="yes"/>
      <point x="120" y="558"/>
      <point x="107" y="568"/>
      <point x="95" y="568" type="curve" smooth="yes"/>
      <point x="83" y="568"/>
      <point x="70" y="562"/>
      <point x="68" y="544" type="curve" smooth="yes"/>
      <point x="33" y="219" type="line" smooth="yes"/>
      <point x="32" y="207"/>
      <point x="42" y="196"/>
      <point x="55" y="196" type="curve"/>
    </contour>
    <contour>
      <point x="192" y="0" type="curve" smooth="yes"/>
      <point x="204" y="0"/>
      <point x="217" y="6"/>
      <point x="219" y="26" type="curve" smooth="yes"/>
      <point x="255" y="358" type="line" smooth="yes"/>
      <point x="257" y="375"/>
      <point x="248" y="387"/>
      <point x="233" y="387" type="curve" smooth="yes"/>
      <point x="220" y="387"/>
      <point x="207" y="382"/>
      <point x="205" y="365" type="curve" smooth="yes"/>
      <point x="169" y="31" type="line" smooth="yes"/>
      <point x="167" y="11"/>
      <point x="179" y="0"/>
    </contour>
    <contour>
      <point x="53" y="196" type="line"/>
      <point x="353" y="196" type="line" smooth="yes"/>
      <point x="369" y="196"/>
      <point x="377" y="207"/>
      <point x="377" y="219" type="curve" smooth="yes"/>
      <point x="377" y="231"/>
      <point x="365" y="241"/>
      <point x="349" y="241" type="curve" smooth="yes"/>
      <point x="71" y="241" type="line"/>
    </contour>
  </outline>
</glyph>
<glyph name="five" format="2">
  <advance width="373"/>
  <unicode hex="0035"/>
  <outline>
    <contour>
      <point x="131" y="-1" type="curve" smooth="yes"/>
      <point x="260" y="-1"/>
      <point x="340" y="76"/>
      <point x="340.0" y="213" type="curve" smooth="yes"/>
      <point x="340" y="296"/>
      <point x="280" y="354"/>
      <point x="184" y="354" type="curve" smooth="yes"/>
      <point x="144" y="354"/>
      <point x="119" y="348"/>
      <point x="70" y="333" type="curve"/>
      <point x="96" y="312" type="line"/>
      <point x="123" y="553" type="line"/>
      <point x="90" y="523" type="line"/>
      <point x="325" y="523" type="line" smooth="yes"/>
      <point x="345" y="523"/>
      <point x="352" y="533"/>
      <point x="352" y="545" type="curve" smooth="yes"/>
      <point x="352" y="557"/>
      <point x="344" y="568"/>
      <point x="324" y="568" type="curve" smooth="yes"/>
      <point x="104" y="568" type="line"/>
      <point x="84" y="568"/>
      <point x="74" y="560"/>
      <point x="72" y="541" type="curve" smooth="yes"/>
      <point x="47" y="310" type="line" smooth="yes"/>
      <point x="45" y="295"/>
      <point x="60" y="282"/>
      <point x="75" y="286" type="curve"/>
      <point x="120" y="299"/>
      <point x="145" y="304"/>
      <point x="170" y="304" type="curve" smooth="yes"/>
      <point x="244" y="304"/>
      <point x="289" y="265"/>
      <point x="289" y="201" type="curve" smooth="yes"/>
      <point x="289" y="107"/>
      <point x="228" y="49"/>
      <point x="145" y="49" type="curve" smooth="yes"/>
      <point x="111" y="49"/>
      <point x="72" y="61"/>
      <point x="54" y="78" type="curve" smooth="yes"/>
      <point x="49" y="83"/>
      <point x="43" y="87"/>
      <point x="35" y="87" type="curve" smooth="yes"/>
      <point x="23" y="87"/>
      <point x="11" y="76"/>
      <point x="11" y="62" type="curve" smooth="yes"/>
      <point x="11" y="55"/>
      <point x="16" y="46"/>
      <point x="25" y="37" type="curve" smooth="yes"/>
      <point x="47" y="15"/>
      <point x="92" y="-1"/>
    </contour>
  </outline>
</glyph>
<glyph name="six" format="2">
  <advance width="389"/>
  <unicode hex="0036"/>
  <outline>
    <contour>
      <point x="29" y="66"/>
      <point x="94" y="-1.0"/>
      <point x="167" y="-1.0" type="curve" smooth="yes"/>
      <point x="267" y="-1.0"/>
      <point x="333" y="89"/>
      <point x="336" y="196" type="curve" smooth="yes"/>
      <point x="339" y="301"/>
      <point x="286" y="355"/>
      <point x="206" y="355" type="curve" smooth="yes"/>
      <point x="124" y="354"/>
      <point x="65" y="292"/>
      <point x="65" y="210" type="curve"/>
      <point x="79" y="157" type="line"/>
      <point x="79" y="243"/>
      <point x="131" y="307"/>
      <point x="200" y="307" type="curve" smooth="yes"/>
      <point x="257" y="307"/>
      <point x="290" y="267"/>
      <point x="286" y="190" type="curve" smooth="yes"/>
      <point x="283" y="112"/>
      <point x="236" y="45"/>
      <point x="175" y="45" type="curve" smooth="yes"/>
      <point x="120" y="45"/>
      <point x="79.0" y="93.0"/>
      <point x="79.0" y="157.0" type="curve" smooth="yes"/>
      <point x="79.0" y="384.0"/>
      <point x="138" y="524"/>
      <point x="233" y="523" type="curve" smooth="yes"/>
      <point x="266" y="523"/>
      <point x="296" y="511"/>
      <point x="313" y="492" type="curve" smooth="yes"/>
      <point x="322" y="482"/>
      <point x="338" y="478"/>
      <point x="350" y="491" type="curve" smooth="yes"/>
      <point x="361" y="504"/>
      <point x="355" y="514"/>
      <point x="347" y="523" type="curve" smooth="yes"/>
      <point x="323" y="551"/>
      <point x="283" y="568.0"/>
      <point x="242" y="568.0" type="curve" smooth="yes"/>
      <point x="110" y="568.0"/>
      <point x="29" y="411"/>
      <point x="29" y="156" type="curve" smooth="yes"/>
    </contour>
  </outline>
</glyph>
<glyph name="seven" format="2">
  <advance width="380"/>
  <unicode hex="0037"/>
  <outline>
    <contour>
      <point x="72" y="0" type="curve" smooth="yes"/>
      <point x="84" y="0"/>
      <point x="98" y="8"/>
      <point x="107" y="26" type="curve" smooth="yes"/>
      <point x="353" y="533" type="line" smooth="yes"/>
      <point x="362" y="551"/>
      <point x="353" y="568.0"/>
      <point x="334" y="568" type="curve" smooth="yes"/>
      <point x="93" y="568" type="line" smooth="yes"/>
      <point x="75" y="568"/>
      <point x="67" y="557"/>
      <point x="68" y="546" type="curve" smooth="yes"/>
      <point x="69" y="534"/>
      <point x="78" y="523"/>
      <point x="96" y="523" type="curve" smooth="yes"/>
      <point x="322" y="523" type="line"/>
      <point x="305" y="550" type="line"/>
      <point x="60" y="46" type="line" smooth="yes"/>
      <point x="45" y="15"/>
      <point x="59" y="0"/>
    </contour>
  </outline>
</glyph>
<glyph name="eight" format="2">
	<advance width="359"/>
	<unicode hex="0038"/>
	<outline>
		<contour>
			<point x="158" y="42" type="curve" smooth="yes"/>
			<point x="108" y="42"/>
			<point x="70" y="73"/>
			<point x="70" y="137" type="curve" smooth="yes"/>
			<point x="70" y="201"/>
			<point x="103" y="235"/>
			<point x="180" y="291" type="curve" smooth="yes"/>
			<point x="257" y="347"/>
			<point x="340" y="402"/>
			<point x="340" y="464" type="curve" smooth="yes"/>
			<point x="340" y="547"/>
			<point x="268" y="568"/>
			<point x="201" y="568" type="curve" smooth="yes"/>
			<point x="128" y="568"/>
			<point x="50" y="533"/>
			<point x="50" y="448" type="curve" smooth="yes"/>
			<point x="50" y="387"/>
			<point x="119" y="329"/>
			<point x="146" y="302" type="curve" smooth="yes"/>
			<point x="161" y="287" type="line" smooth="yes"/>
			<point x="197" y="251"/>
			<point x="255" y="194"/>
			<point x="255" y="149" type="curve" smooth="yes"/>
			<point x="255" y="77"/>
			<point x="216" y="42"/>
		</contour>
		<contour>
			<point x="155" y="-4" type="curve" smooth="yes"/>
			<point x="243" y="-4"/>
			<point x="305" y="58"/>
			<point x="305" y="149" type="curve" smooth="yes"/>
			<point x="305" y="199"/>
			<point x="260" y="255"/>
			<point x="203" y="310" type="curve" smooth="yes"/>
			<point x="173" y="339" type="line" smooth="yes"/>
			<point x="149" y="363"/>
			<point x="100" y="406"/>
			<point x="100" y="451" type="curve" smooth="yes"/>
			<point x="100" y="504"/>
			<point x="154" y="522"/>
			<point x="198" y="522" type="curve" smooth="yes"/>
			<point x="247" y="522"/>
			<point x="290" y="518"/>
			<point x="290" y="465" type="curve" smooth="yes"/>
			<point x="290" y="421"/>
			<point x="219" y="376"/>
			<point x="149" y="325" type="curve" smooth="yes"/>
			<point x="52" y="254"/>
			<point x="20" y="209"/>
			<point x="20" y="133" type="curve" smooth="yes"/>
			<point x="20" y="54"/>
			<point x="79" y="-4"/>
		</contour>
	</outline>
</glyph>
<glyph name="nine" format="2">
	<advance width="365"/>
	<unicode hex="0039"/>
	<outline>
		<contour>
			<point x="249" y="0" type="curve" smooth="yes"/>
			<point x="260" y="0"/>
			<point x="272" y="6"/>
			<point x="274" y="21" type="curve" smooth="yes"/>
			<point x="329" y="541" type="line" smooth="yes"/>
			<point x="331" y="559"/>
			<point x="318" y="568"/>
			<point x="304" y="568" type="curve" smooth="yes"/>
			<point x="293" y="568"/>
			<point x="281" y="561"/>
			<point x="279" y="546" type="curve" smooth="yes"/>
			<point x="224" y="26" type="line" smooth="yes"/>
			<point x="222" y="10"/>
			<point x="235" y="0"/>
		</contour>
		<contour>
			<point x="162" y="218" type="curve" smooth="yes"/>
			<point x="206" y="218"/>
			<point x="243" y="257"/>
			<point x="266" y="304" type="curve"/>
			<point x="284" y="466" type="line"/>
			<point x="280" y="466" type="line"/>
			<point x="279" y="461"/>
			<point x="275" y="435"/>
			<point x="274" y="430" type="curve" smooth="yes"/>
			<point x="257" y="369"/>
			<point x="211" y="264"/>
			<point x="163" y="264" type="curve" smooth="yes"/>
			<point x="111" y="264"/>
			<point x="92" y="330"/>
			<point x="99" y="395" type="curve" smooth="yes"/>
			<point x="108" y="480"/>
			<point x="149" y="526"/>
			<point x="198" y="526" type="curve" smooth="yes"/>
			<point x="226" y="526"/>
			<point x="267" y="518"/>
			<point x="286" y="489" type="curve"/>
			<point x="291" y="535" type="line"/>
			<point x="266" y="563"/>
			<point x="229" y="572"/>
			<point x="199" y="572" type="curve" smooth="yes"/>
			<point x="125" y="572"/>
			<point x="61" y="513"/>
			<point x="49" y="398" type="curve" smooth="yes"/>
			<point x="40" y="310"/>
			<point x="75" y="218"/>
		</contour>
	</outline>
</glyph>
<glyph name="colon" format="2">
	<advance width="157"/>
	<unicode hex="003A"/>
	<outline>
		<contour>
			<point x="51" y="-9" type="curve" smooth="yes"/>
			<point x="72" y="-9"/>
			<point x="89" y="11"/>
			<point x="89" y="32" type="curve" smooth="yes"/>
			<point x="89" y="53"/>
			<point x="72" y="71"/>
			<point x="51" y="71" type="curve" smooth="yes"/>
			<point x="30" y="71"/>
			<point x="9" y="53"/>
			<point x="9" y="32" type="curve" smooth="yes"/>
			<point x="9" y="11"/>
			<point x="30" y="-9"/>
		</contour>
		<contour>
			<point x="77" y="239" type="curve" smooth="yes"/>
			<point x="98" y="239"/>
			<point x="116" y="259"/>
			<point x="116" y="280" type="curve" smooth="yes"/>
			<point x="116" y="301"/>
			<point x="98" y="319"/>
			<point x="77" y="319" type="curve" smooth="yes"/>
			<point x="56" y="319"/>
			<point x="36" y="301"/>
			<point x="36" y="280" type="curve" smooth="yes"/>
			<point x="36" y="259"/>
			<point x="56" y="239"/>
		</contour>
	</outline>
</glyph>
<glyph name="semicolon" format="2">
	<advance width="164"/>
	<unicode hex="003B"/>
	<outline>
		<contour>
			<point x="47" y="-102" type="curve" smooth="yes"/>
			<point x="58" y="-103"/>
			<point x="70" y="-95"/>
			<point x="72" y="-78" type="curve" smooth="yes"/>
			<point x="84" y="21" type="line" smooth="yes"/>
			<point x="86" y="39"/>
			<point x="74" y="49"/>
			<point x="61" y="50" type="curve" smooth="yes"/>
			<point x="47" y="52"/>
			<point x="35" y="45"/>
			<point x="33" y="28" type="curve" smooth="yes"/>
			<point x="23" y="-71" type="line" smooth="yes"/>
			<point x="21" y="-90"/>
			<point x="34" y="-101"/>
		</contour>
		<contour>
			<point x="81" y="239" type="curve" smooth="yes"/>
			<point x="101" y="239"/>
			<point x="121" y="258"/>
			<point x="121" y="278" type="curve" smooth="yes"/>
			<point x="121" y="299"/>
			<point x="101" y="315"/>
			<point x="81" y="315" type="curve" smooth="yes"/>
			<point x="60" y="315"/>
			<point x="44" y="298"/>
			<point x="44" y="278" type="curve" smooth="yes"/>
			<point x="44" y="259"/>
			<point x="60" y="239"/>
		</contour>
	</outline>
</glyph>
<glyph name="less" format="2">
  <advance width="426"/>
  <unicode hex="003C"/>
  <outline>
    <contour>
      <point x="268" y="102" type="line" smooth="yes"/>
      <point x="283" y="91"/>
      <point x="296" y="91"/>
      <point x="305" y="100" type="curve" smooth="yes"/>
      <point x="314" y="111"/>
      <point x="312" y="126"/>
      <point x="297" y="137" type="curve" smooth="yes"/>
      <point x="122" y="259" type="line"/>
      <point x="119" y="229" type="line"/>
      <point x="327" y="325" type="line" smooth="yes"/>
      <point x="347" y="334"/>
      <point x="351" y="344"/>
      <point x="348" y="356" type="curve" smooth="yes"/>
      <point x="345" y="366"/>
      <point x="334" y="377"/>
      <point x="315" y="368" type="curve" smooth="yes"/>
      <point x="93" y="266" type="line" smooth="yes"/>
      <point x="85" y="262"/>
      <point x="79" y="254"/>
      <point x="79" y="246" type="curve" smooth="yes"/>
      <point x="79" y="239"/>
      <point x="81" y="232"/>
      <point x="89" y="227" type="curve" smooth="yes"/>
    </contour>
  </outline>
</glyph>
<glyph name="equal" format="2">
  <advance width="382"/>
  <unicode hex="003D"/>
  <outline>
    <contour>
      <point x="66" y="129" type="curve" smooth="yes"/>
      <point x="293" y="129" type="line" smooth="yes"/>
      <point x="311" y="129"/>
      <point x="320" y="141"/>
      <point x="320" y="152" type="curve" smooth="yes"/>
      <point x="320" y="163"/>
      <point x="311" y="174"/>
      <point x="293" y="174" type="curve" smooth="yes"/>
      <point x="66" y="174" type="line" smooth="yes"/>
      <point x="48" y="174"/>
      <point x="39" y="162"/>
      <point x="39" y="151" type="curve" smooth="yes"/>
      <point x="39" y="140"/>
      <point x="48" y="129"/>
    </contour>
    <contour>
      <point x="103" y="280" type="curve" smooth="yes"/>
      <point x="330" y="280" type="line" smooth="yes"/>
      <point x="348" y="280"/>
      <point x="357" y="292"/>
      <point x="357" y="303" type="curve" smooth="yes"/>
      <point x="357" y="314"/>
      <point x="348" y="325"/>
      <point x="330" y="325" type="curve" smooth="yes"/>
      <point x="103" y="325" type="line" smooth="yes"/>
      <point x="85" y="325"/>
      <point x="76" y="313"/>
      <point x="76" y="302" type="curve" smooth="yes"/>
      <point x="76" y="291"/>
      <point x="85" y="280"/>
    </contour>
  </outline>
</glyph>
<glyph name="greater" format="2">
	<advance width="340"/>
	<unicode hex="003E"/>
	<outline>
		<contour>
			<point x="269" y="179" type="line"/>
			<point x="241" y="216" type="line"/>
			<point x="34" y="103" type="line" smooth="yes"/>
			<point x="14" y="93"/>
			<point x="12" y="81"/>
			<point x="17" y="70" type="curve" smooth="yes"/>
			<point x="22" y="60"/>
			<point x="34" y="50"/>
			<point x="52" y="60" type="curve" smooth="yes"/>
		</contour>
		<contour>
			<point x="242" y="181" type="line" smooth="yes"/>
			<point x="258" y="171"/>
			<point x="269" y="176"/>
			<point x="275" y="186" type="curve" smooth="yes"/>
			<point x="282" y="197"/>
			<point x="282" y="207"/>
			<point x="266" y="217" type="curve" smooth="yes"/>
			<point x="81" y="330" type="line" smooth="yes"/>
			<point x="64" y="340"/>
			<point x="51" y="339"/>
			<point x="44" y="329" type="curve" smooth="yes"/>
			<point x="37" y="318"/>
			<point x="41" y="304"/>
			<point x="56" y="294" type="curve" smooth="yes"/>
		</contour>
	</outline>
</glyph>
<glyph name="question" format="2">
	<advance width="420"/>
	<unicode hex="003F"/>
	<outline>
		<contour>
			<point x="75" y="456" type="curve" smooth="yes"/>
			<point x="89" y="453"/>
			<point x="108" y="462"/>
			<point x="110" y="484" type="curve" smooth="yes"/>
			<point x="116" y="541"/>
			<point x="150" y="604"/>
			<point x="235" y="604" type="curve" smooth="yes"/>
			<point x="301" y="604"/>
			<point x="356" y="569"/>
			<point x="350" y="496" type="curve" smooth="yes"/>
			<point x="343" y="419"/>
			<point x="306" y="322"/>
			<point x="168" y="322" type="curve"/>
			<point x="168" y="272" type="line"/>
			<point x="324" y="272"/>
			<point x="386" y="365"/>
			<point x="399" y="488" type="curve" smooth="yes"/>
			<point x="409" y="583"/>
			<point x="336" y="655"/>
			<point x="245" y="654" type="curve" smooth="yes"/>
			<point x="130" y="654"/>
			<point x="71" y="589"/>
			<point x="61" y="494" type="curve" smooth="yes"/>
			<point x="58" y="472"/>
			<point x="64" y="459"/>
		</contour>
		<contour>
			<point x="143" y="-6" type="curve" smooth="yes"/>
			<point x="164" y="-6"/>
			<point x="184" y="11"/>
			<point x="184" y="33" type="curve" smooth="yes"/>
			<point x="184" y="54"/>
			<point x="165" y="74"/>
			<point x="143" y="74" type="curve" smooth="yes"/>
			<point x="121" y="74"/>
			<point x="104" y="53"/>
			<point x="104" y="33" type="curve" smooth="yes"/>
			<point x="104" y="12"/>
			<point x="121" y="-6"/>
		</contour>
		<contour>
			<point x="156" y="174" type="curve" smooth="yes"/>
			<point x="169" y="173"/>
			<point x="182" y="180"/>
			<point x="185" y="202" type="curve"/>
			<point x="196" y="303" type="line"/>
			<point x="168" y="322" type="line"/>
			<point x="157" y="322"/>
			<point x="146" y="313"/>
			<point x="145" y="302" type="curve" smooth="yes"/>
			<point x="134" y="201" type="line" smooth="yes"/>
			<point x="132" y="187"/>
			<point x="144" y="177"/>
		</contour>
	</outline>
</glyph>
<glyph name="at" format="2">
  <advance width="635"/>
  <unicode hex="0040"/>
  <outline>
    <contour>
      <point x="250" y="52" type="curve" smooth="yes"/>
      <point x="330" y="52"/>
      <point x="377" y="126"/>
      <point x="404" y="234" type="curve" smooth="yes"/>
      <point x="430" y="338"/>
      <point x="417" y="406"/>
      <point x="350" y="406" type="curve" smooth="yes"/>
      <point x="270" y="406"/>
      <point x="203" y="332"/>
      <point x="176" y="224" type="curve" smooth="yes"/>
      <point x="150" y="120"/>
      <point x="183" y="52"/>
    </contour>
    <contour>
      <point x="261" y="97" type="curve" smooth="yes"/>
      <point x="221" y="97"/>
      <point x="207" y="137"/>
      <point x="226" y="215" type="curve" smooth="yes"/>
      <point x="247" y="300"/>
      <point x="291" y="361"/>
      <point x="339" y="361" type="curve" smooth="yes"/>
      <point x="379" y="361"/>
      <point x="393" y="321"/>
      <point x="374" y="243" type="curve" smooth="yes"/>
      <point x="353" y="158"/>
      <point x="309" y="97"/>
    </contour>
    <contour>
      <point x="246" y="-80" type="curve" smooth="yes"/>
      <point x="287" y="-80"/>
      <point x="336" y="-68"/>
      <point x="366" y="-60" type="curve" smooth="yes"/>
      <point x="386" y="-55"/>
      <point x="390" y="-41"/>
      <point x="387" y="-29" type="curve" smooth="yes"/>
      <point x="382" y="-13"/>
      <point x="363" y="-12"/>
      <point x="351" y="-16" type="curve" smooth="yes"/>
      <point x="321" y="-25"/>
      <point x="278" y="-35"/>
      <point x="243" y="-35" type="curve" smooth="yes"/>
      <point x="122" y="-35"/>
      <point x="53" y="77"/>
      <point x="87" y="214" type="curve" smooth="yes"/>
      <point x="129" y="382"/>
      <point x="239" y="481"/>
      <point x="369" y="481" type="curve" smooth="yes"/>
      <point x="491" y="481"/>
      <point x="560" y="385"/>
      <point x="528" y="250" type="curve" smooth="yes"/>
      <point x="509" y="172"/>
      <point x="455" y="97"/>
      <point x="415" y="97" type="curve" smooth="yes"/>
      <point x="399" y="97"/>
      <point x="397" y="131"/>
      <point x="411" y="185" type="curve" smooth="yes"/>
      <point x="459" y="374" type="line" smooth="yes"/>
      <point x="463" y="390"/>
      <point x="459" y="402"/>
      <point x="442" y="402" type="curve" smooth="yes"/>
      <point x="423" y="402"/>
      <point x="413" y="395"/>
      <point x="408" y="377" type="curve" smooth="yes"/>
      <point x="362" y="196" type="line" smooth="yes"/>
      <point x="339" y="107"/>
      <point x="359" y="52"/>
      <point x="410" y="52" type="curve" smooth="yes"/>
      <point x="473" y="52"/>
      <point x="552" y="146"/>
      <point x="578" y="251" type="curve" smooth="yes"/>
      <point x="617" y="409"/>
      <point x="528" y="526"/>
      <point x="371" y="526" type="curve" smooth="yes"/>
      <point x="214" y="526"/>
      <point x="84" y="410"/>
      <point x="37" y="223" type="curve" smooth="yes"/>
      <point x="-6" y="49"/>
      <point x="86" y="-80"/>
    </contour>
  </outline>
</glyph>
<glyph name="A" format="2">
  <advance width="441"/>
  <unicode hex="0041"/>
  <outline>
    <contour>
      <point x="-7" y="0" type="curve" smooth="yes"/>
      <point x="9" y="-4"/>
      <point x="22" y="8"/>
      <point x="29" y="24" type="curve" smooth="yes"/>
      <point x="278" y="598" type="line"/>
      <point x="262" y="600" type="line"/>
      <point x="345" y="28" type="line" smooth="yes"/>
      <point x="347" y="12"/>
      <point x="351" y="-2"/>
      <point x="372" y="0" type="curve" smooth="yes"/>
      <point x="391" y="2"/>
      <point x="396" y="16"/>
      <point x="393" y="34" type="curve" smooth="yes"/>
      <point x="302" y="625" type="line" smooth="yes"/>
      <point x="300" y="640"/>
      <point x="295" y="650"/>
      <point x="276" y="650" type="curve" smooth="yes"/>
      <point x="259" y="650"/>
      <point x="253" y="641"/>
      <point x="246" y="626" type="curve" smooth="yes"/>
      <point x="-17" y="40" type="line" smooth="yes"/>
      <point x="-27" y="18"/>
      <point x="-22" y="4"/>
    </contour>
    <contour>
      <point x="142" y="327" type="line"/>
      <point x="329" y="327" type="line"/>
      <point x="321" y="372" type="line"/>
      <point x="161" y="372" type="line"/>
    </contour>
  </outline>
</glyph>
<glyph name="B" format="2">
  <advance width="503"/>
  <unicode hex="0042"/>
  <outline>
    <contour>
      <point x="57" y="0" type="curve" smooth="yes"/>
      <point x="285" y="0"/>
      <point x="430" y="69"/>
      <point x="442" y="182" type="curve" smooth="yes"/>
      <point x="455" y="308"/>
      <point x="326" y="373"/>
      <point x="105" y="356" type="curve"/>
      <point x="101" y="312" type="line"/>
      <point x="288" y="330"/>
      <point x="401" y="277"/>
      <point x="392" y="189" type="curve" smooth="yes"/>
      <point x="383" y="105"/>
      <point x="274" y="48"/>
      <point x="85" y="46" type="curve"/>
      <point x="143" y="605" type="line"/>
      <point x="314" y="616"/>
      <point x="400" y="556"/>
      <point x="392" y="488" type="curve" smooth="yes"/>
      <point x="384" y="423"/>
      <point x="346" y="365"/>
      <point x="110" y="357" type="curve"/>
      <point x="106" y="321" type="line"/>
      <point x="397" y="333"/>
      <point x="431" y="402"/>
      <point x="442" y="484" type="curve" smooth="yes"/>
      <point x="456" y="594"/>
      <point x="340" y="663"/>
      <point x="123" y="650" type="curve" smooth="yes"/>
      <point x="106" y="649"/>
      <point x="97" y="641"/>
      <point x="95" y="623" type="curve" smooth="yes"/>
      <point x="33" y="31" type="line" smooth="yes"/>
      <point x="31" y="14"/>
      <point x="42" y="0"/>
    </contour>
  </outline>
</glyph>
<glyph name="D" format="2">
	<advance width="489"/>
	<unicode hex="0044"/>
	<outline>
		<contour>
			<point x="120" y="0" type="line" smooth="yes"/>
			<point x="319" y="0"/>
			<point x="427" y="128"/>
			<point x="451" y="340" type="curve" smooth="yes"/>
			<point x="472" y="526"/>
			<point x="367" y="650"/>
			<point x="179" y="650" type="curve" smooth="yes"/>
			<point x="123" y="650" type="line"/>
			<point x="132" y="604" type="line"/>
			<point x="186" y="604" type="line" smooth="yes"/>
			<point x="335" y="604"/>
			<point x="419" y="496"/>
			<point x="402" y="344" type="curve" smooth="yes"/>
			<point x="380" y="152"/>
			<point x="291" y="46"/>
			<point x="117" y="46" type="curve" smooth="yes"/>
			<point x="76" y="46" type="line"/>
			<point x="56" y="0" type="line"/>
		</contour>
		<contour>
			<point x="56" y="0" type="curve"/>
			<point x="81" y="25" type="line"/>
			<point x="144" y="619" type="line"/>
			<point x="123" y="650" type="line"/>
			<point x="101" y="650"/>
			<point x="96" y="639"/>
			<point x="94" y="623" type="curve" smooth="yes"/>
			<point x="31" y="27" type="line" smooth="yes"/>
			<point x="29" y="12"/>
			<point x="38" y="0"/>
		</contour>
	</outline>
</glyph>
<glyph name="E" format="2">
  <advance width="477"/>
  <unicode hex="0045"/>
  <outline>
    <contour>
      <point x="58" y="0" type="curve" smooth="yes"/>
      <point x="372" y="0" type="line" smooth="yes"/>
      <point x="392" y="0"/>
      <point x="399" y="14"/>
      <point x="399" y="26" type="curve" smooth="yes"/>
      <point x="399" y="38"/>
      <point x="392" y="50"/>
      <point x="372" y="50" type="curve" smooth="yes"/>
      <point x="86" y="50" type="line"/>
      <point x="144" y="600" type="line"/>
      <point x="436" y="600" type="line" smooth="yes"/>
      <point x="456" y="600"/>
      <point x="463" y="613"/>
      <point x="463" y="625" type="curve" smooth="yes"/>
      <point x="463" y="637"/>
      <point x="456" y="650"/>
      <point x="436" y="650" type="curve" smooth="yes"/>
      <point x="125" y="650" type="line" smooth="yes"/>
      <point x="103" y="650"/>
      <point x="98" y="639"/>
      <point x="96" y="623" type="curve" smooth="yes"/>
      <point x="33" y="27" type="line" smooth="yes"/>
      <point x="31" y="12"/>
      <point x="40" y="0"/>
    </contour>
    <contour>
      <point x="91" y="326" type="line"/>
      <point x="381" y="326" type="line" smooth="yes"/>
      <point x="401" y="326"/>
      <point x="411" y="338"/>
      <point x="411" y="350" type="curve" smooth="yes"/>
      <point x="411" y="362"/>
      <point x="403" y="374"/>
      <point x="383" y="374" type="curve" smooth="yes"/>
      <point x="96" y="374" type="line"/>
    </contour>
  </outline>
</glyph>
<glyph name="F" format="2">
  <advance width="477"/>
  <unicode hex="0046"/>
  <outline>
    <contour>
      <point x="58" y="0" type="curve" smooth="yes"/>
      <point x="80" y="0"/>
      <point x="82" y="15"/>
      <point x="83" y="25" type="curve" smooth="yes"/>
      <point x="144" y="600" type="line"/>
      <point x="436" y="600" type="line" smooth="yes"/>
      <point x="456" y="600"/>
      <point x="463" y="613"/>
      <point x="463" y="625" type="curve" smooth="yes"/>
      <point x="463" y="637"/>
      <point x="456" y="650"/>
      <point x="436" y="650" type="curve" smooth="yes"/>
      <point x="125" y="650" type="line" smooth="yes"/>
      <point x="103" y="650"/>
      <point x="98" y="639"/>
      <point x="96" y="623" type="curve" smooth="yes"/>
      <point x="33" y="27" type="line" smooth="yes"/>
      <point x="31" y="12"/>
      <point x="40" y="0"/>
    </contour>
    <contour>
      <point x="92" y="326" type="line"/>
      <point x="374" y="326" type="line" smooth="yes"/>
      <point x="394" y="326"/>
      <point x="402" y="338"/>
      <point x="402" y="350" type="curve" smooth="yes"/>
      <point x="402" y="362"/>
      <point x="394" y="374"/>
      <point x="374" y="374" type="curve" smooth="yes"/>
      <point x="97" y="374" type="line"/>
    </contour>
  </outline>
</glyph>
<glyph name="G" format="2">
	<advance width="526"/>
	<unicode hex="0047"/>
	<outline>
		<contour>
			<point x="187" y="-4" type="curve" smooth="yes"/>
			<point x="288" y="-4"/>
			<point x="368" y="80"/>
			<point x="437" y="289" type="curve"/>
			<point x="437" y="350" type="line"/>
			<point x="420" y="350"/>
			<point x="417" y="340"/>
			<point x="411" y="327" type="curve" smooth="yes"/>
			<point x="340" y="161"/>
			<point x="285" y="42"/>
			<point x="196" y="42" type="curve" smooth="yes"/>
			<point x="101" y="42"/>
			<point x="72" y="166"/>
			<point x="100" y="334" type="curve" smooth="yes"/>
			<point x="123" y="471"/>
			<point x="205" y="604"/>
			<point x="316" y="604" type="curve" smooth="yes"/>
			<point x="386" y="604"/>
			<point x="418" y="574"/>
			<point x="440" y="550" type="curve" smooth="yes"/>
			<point x="451" y="539"/>
			<point x="466" y="532"/>
			<point x="477" y="542" type="curve" smooth="yes"/>
			<point x="489" y="553"/>
			<point x="486" y="566"/>
			<point x="476" y="579" type="curve" smooth="yes"/>
			<point x="451" y="611"/>
			<point x="391" y="650"/>
			<point x="323" y="650" type="curve" smooth="yes"/>
			<point x="174" y="650"/>
			<point x="80" y="498"/>
			<point x="51" y="341" type="curve" smooth="yes"/>
			<point x="14" y="141"/>
			<point x="69" y="-4"/>
		</contour>
		<contour>
			<point x="406" y="0" type="curve" smooth="yes"/>
			<point x="429" y="-1"/>
			<point x="433" y="16"/>
			<point x="435" y="36" type="curve" smooth="yes"/>
			<point x="465" y="323" type="line" smooth="yes"/>
			<point x="467" y="340"/>
			<point x="454" y="350"/>
			<point x="437" y="350" type="curve"/>
			<point x="408" y="259" type="line"/>
			<point x="385" y="36" type="line" smooth="yes"/>
			<point x="383" y="15"/>
			<point x="386" y="1"/>
		</contour>
	</outline>
</glyph>
<glyph name="H" format="2">
  <advance width="518"/>
  <unicode hex="0048"/>
  <outline>
    <contour>
      <point x="58" y="0" type="curve" smooth="yes"/>
      <point x="80" y="0"/>
      <point x="82" y="15"/>
      <point x="83" y="25" type="curve" smooth="yes"/>
      <point x="146" y="619" type="line" smooth="yes"/>
      <point x="148" y="637"/>
      <point x="142" y="650"/>
      <point x="125" y="650" type="curve" smooth="yes"/>
      <point x="106" y="650"/>
      <point x="98" y="639"/>
      <point x="96" y="623" type="curve" smooth="yes"/>
      <point x="33" y="27" type="line" smooth="yes"/>
      <point x="31" y="12"/>
      <point x="40" y="0"/>
    </contour>
    <contour>
      <point x="90" y="327" type="line"/>
      <point x="427" y="327" type="line"/>
      <point x="432" y="373" type="line"/>
      <point x="95" y="373" type="line"/>
    </contour>
    <contour>
      <point x="394" y="0" type="curve" smooth="yes"/>
      <point x="413" y="0"/>
      <point x="418" y="13"/>
      <point x="419" y="22" type="curve" smooth="yes"/>
      <point x="483" y="621" type="line" smooth="yes"/>
      <point x="485" y="638"/>
      <point x="478" y="650"/>
      <point x="458" y="650" type="curve" smooth="yes"/>
      <point x="440" y="650"/>
      <point x="434" y="638"/>
      <point x="433" y="628" type="curve" smooth="yes"/>
      <point x="369" y="27" type="line" smooth="yes"/>
      <point x="368" y="15"/>
      <point x="371" y="0"/>
    </contour>
  </outline>
</glyph>
<glyph name="I" format="2">
	<advance width="280"/>
	<unicode hex="0049"/>
	<outline>
		<contour>
			<point x="79" y="38" type="line"/>
			<point x="129" y="38" type="line"/>
			<point x="190" y="607" type="line"/>
			<point x="139" y="607" type="line"/>
		</contour>
		<contour>
			<point x="95" y="627" type="curve" smooth="yes"/>
			<point x="95" y="615"/>
			<point x="103" y="604"/>
			<point x="123" y="604" type="curve" smooth="yes"/>
			<point x="212" y="604" type="line" smooth="yes"/>
			<point x="232" y="604"/>
			<point x="236" y="615"/>
			<point x="236" y="627" type="curve" smooth="yes"/>
			<point x="236" y="639"/>
			<point x="229" y="650"/>
			<point x="209" y="650" type="curve" smooth="yes"/>
			<point x="120" y="650" type="line" smooth="yes"/>
			<point x="100" y="650"/>
			<point x="95" y="639"/>
		</contour>
		<contour>
			<point x="32" y="23" type="curve" smooth="yes"/>
			<point x="32" y="11"/>
			<point x="40" y="0"/>
			<point x="60" y="0" type="curve" smooth="yes"/>
			<point x="149" y="0" type="line" smooth="yes"/>
			<point x="169" y="0"/>
			<point x="173" y="11"/>
			<point x="173" y="23" type="curve" smooth="yes"/>
			<point x="173" y="35"/>
			<point x="166" y="46"/>
			<point x="146" y="46" type="curve" smooth="yes"/>
			<point x="57" y="46" type="line" smooth="yes"/>
			<point x="37" y="46"/>
			<point x="32" y="35"/>
		</contour>
	</outline>
</glyph>
<glyph name="J" format="2">
  <advance width="429"/>
  <unicode hex="004A"/>
  <outline>
    <contour>
      <point x="141" y="-5" type="curve" smooth="yes"/>
      <point x="242" y="-5"/>
      <point x="291" y="57"/>
      <point x="306" y="205" type="curve" smooth="yes"/>
      <point x="351" y="650" type="line"/>
      <point x="301" y="650" type="line"/>
      <point x="256" y="205" type="line" smooth="yes"/>
      <point x="244" y="88"/>
      <point x="206" y="41"/>
      <point x="141" y="41" type="curve" smooth="yes"/>
      <point x="99" y="41"/>
      <point x="74" y="71"/>
      <point x="54" y="96" type="curve" smooth="yes"/>
      <point x="43" y="110"/>
      <point x="28" y="114"/>
      <point x="17" y="103" type="curve" smooth="yes"/>
      <point x="5" y="91"/>
      <point x="8" y="77"/>
      <point x="17" y="65" type="curve" smooth="yes"/>
      <point x="46" y="28"/>
      <point x="87" y="-5"/>
    </contour>
    <contour>
      <point x="282" y="604" type="curve" smooth="yes"/>
      <point x="371" y="604" type="line" smooth="yes"/>
      <point x="391" y="604"/>
      <point x="395" y="615"/>
      <point x="395" y="627" type="curve" smooth="yes"/>
      <point x="395" y="639"/>
      <point x="388" y="650"/>
      <point x="368" y="650" type="curve" smooth="yes"/>
      <point x="279" y="650" type="line" smooth="yes"/>
      <point x="259" y="650"/>
      <point x="254" y="639"/>
      <point x="254" y="627" type="curve" smooth="yes"/>
      <point x="254" y="615"/>
      <point x="262" y="604"/>
    </contour>
  </outline>
</glyph>
<glyph name="K" format="2">
  <advance width="467"/>
  <unicode hex="004B"/>
  <outline>
    <contour>
      <point x="396" y="0" type="curve" smooth="yes"/>
      <point x="409" y="0"/>
      <point x="419" y="10"/>
      <point x="419" y="23" type="curve" smooth="yes"/>
      <point x="419" y="30"/>
      <point x="416" y="36"/>
      <point x="411" y="42" type="curve" smooth="yes"/>
      <point x="144" y="374" type="line"/>
      <point x="139" y="332" type="line"/>
      <point x="462" y="602" type="line" smooth="yes"/>
      <point x="475" y="614"/>
      <point x="481" y="623"/>
      <point x="481" y="631" type="curve" smooth="yes"/>
      <point x="481" y="643"/>
      <point x="473" y="650"/>
      <point x="460" y="650" type="curve" smooth="yes"/>
      <point x="451" y="650"/>
      <point x="443" y="647"/>
      <point x="431" y="637" type="curve" smooth="yes"/>
      <point x="104" y="360" type="line"/>
      <point x="103" y="348" type="line"/>
      <point x="365" y="19" type="line" smooth="yes"/>
      <point x="373" y="9"/>
      <point x="383" y="0"/>
    </contour>
    <contour>
      <point x="58" y="0" type="curve" smooth="yes"/>
      <point x="79" y="0"/>
      <point x="82" y="18"/>
      <point x="83" y="31" type="curve" smooth="yes"/>
      <point x="146" y="619" type="line" smooth="yes"/>
      <point x="148" y="637"/>
      <point x="144" y="650"/>
      <point x="125" y="650" type="curve" smooth="yes"/>
      <point x="105" y="650"/>
      <point x="98" y="639"/>
      <point x="96" y="623" type="curve" smooth="yes"/>
      <point x="33" y="32" type="line" smooth="yes"/>
      <point x="31" y="17"/>
      <point x="40" y="0"/>
    </contour>
  </outline>
</glyph>
<glyph name="L" format="2">
  <advance width="432"/>
  <unicode hex="004C"/>
  <outline>
    <contour>
      <point x="58" y="0" type="curve"/>
      <point x="359" y="0" type="line" smooth="yes"/>
      <point x="377" y="0"/>
      <point x="385" y="13"/>
      <point x="385" y="26" type="curve" smooth="yes"/>
      <point x="385" y="40"/>
      <point x="376" y="50"/>
      <point x="358" y="50" type="curve" smooth="yes"/>
      <point x="86" y="50" type="line"/>
      <point x="146" y="619" type="line" smooth="yes"/>
      <point x="148" y="637"/>
      <point x="145" y="650"/>
      <point x="125" y="650" type="curve" smooth="yes"/>
      <point x="105" y="650"/>
      <point x="98" y="639"/>
      <point x="96" y="623" type="curve" smooth="yes"/>
      <point x="33" y="27" type="line" smooth="yes"/>
      <point x="31" y="12"/>
      <point x="40" y="0"/>
    </contour>
  </outline>
</glyph>
<glyph name="M" format="2">
	<advance width="814"/>
	<unicode hex="004D"/>
	<outline>
		<contour>
			<point x="0" y="0" type="curve" smooth="yes"/>
			<point x="11" y="0"/>
			<point x="23" y="7"/>
			<point x="32" y="25" type="curve" smooth="yes"/>
			<point x="309" y="593" type="line"/>
			<point x="300" y="650" type="line"/>
			<point x="282" y="650"/>
			<point x="276" y="639"/>
			<point x="269" y="625" type="curve" smooth="yes"/>
			<point x="-17" y="38" type="line" smooth="yes"/>
			<point x="-23" y="26"/>
			<point x="-23" y="16"/>
			<point x="-19" y="10" type="curve" smooth="yes"/>
			<point x="-15" y="4"/>
			<point x="-8" y="0"/>
		</contour>
		<contour>
			<point x="374" y="0" type="curve"/>
			<point x="391" y="61" type="line"/>
			<point x="325" y="631" type="line" smooth="yes"/>
			<point x="324" y="639"/>
			<point x="317" y="650"/>
			<point x="299" y="650" type="curve"/>
			<point x="280" y="584" type="line"/>
			<point x="345" y="24" type="line" smooth="yes"/>
			<point x="346" y="14"/>
			<point x="350" y="0"/>
		</contour>
		<contour>
			<point x="372" y="0" type="line"/>
			<point x="392" y="0"/>
			<point x="400" y="17"/>
			<point x="404" y="24" type="curve" smooth="yes"/>
			<point x="676" y="586" type="line"/>
			<point x="666" y="650" type="line"/>
			<point x="651" y="650"/>
			<point x="644" y="635"/>
			<point x="639" y="624" type="curve" smooth="yes"/>
			<point x="366" y="61" type="line"/>
		</contour>
		<contour>
			<point x="744" y="0" type="curve" smooth="yes"/>
			<point x="760" y="0"/>
			<point x="769" y="11"/>
			<point x="767" y="26" type="curve" smooth="yes"/>
			<point x="698" y="622" type="line" smooth="yes"/>
			<point x="696" y="638"/>
			<point x="694" y="650"/>
			<point x="665" y="650" type="curve"/>
			<point x="649" y="608" type="line"/>
			<point x="717" y="24" type="line" smooth="yes"/>
			<point x="718" y="14"/>
			<point x="723" y="0"/>
		</contour>
	</outline>
</glyph>
<glyph name="N" format="2">
	<advance width="584"/>
	<unicode hex="004E"/>
	<outline>
		<contour>
			<point x="434" y="18" type="line" smooth="yes"/>
			<point x="440" y="7"/>
			<point x="449" y="0"/>
			<point x="462" y="0" type="curve"/>
			<point x="464" y="67" type="line"/>
			<point x="154" y="630" type="line" smooth="yes"/>
			<point x="148" y="641"/>
			<point x="140" y="650"/>
			<point x="122" y="650" type="curve"/>
			<point x="119" y="594" type="line"/>
		</contour>
		<contour>
			<point x="56" y="0" type="curve" smooth="yes"/>
			<point x="78" y="0"/>
			<point x="80" y="16"/>
			<point x="81" y="28" type="curve" smooth="yes"/>
			<point x="143" y="612" type="line"/>
			<point x="122" y="650" type="line"/>
			<point x="101" y="650"/>
			<point x="96" y="639"/>
			<point x="94" y="623" type="curve" smooth="yes"/>
			<point x="31" y="27" type="line" smooth="yes"/>
			<point x="29" y="12"/>
			<point x="38" y="0"/>
		</contour>
		<contour>
			<point x="485" y="25" type="curve" smooth="yes"/>
			<point x="548" y="619" type="line" smooth="yes"/>
			<point x="550" y="637"/>
			<point x="546" y="650"/>
			<point x="527" y="650" type="curve" smooth="yes"/>
			<point x="507" y="650"/>
			<point x="500" y="639"/>
			<point x="498" y="623" type="curve" smooth="yes"/>
			<point x="437" y="48" type="line"/>
			<point x="462" y="0" type="line"/>
			<point x="480" y="0"/>
			<point x="483" y="9"/>
		</contour>
	</outline>
</glyph>
<glyph name="O" format="2">
	<advance width="501"/>
	<unicode hex="004F"/>
	<outline>
		<contour>
			<point x="211" y="-4" type="curve" smooth="yes"/>
			<point x="339" y="-4"/>
			<point x="436" y="169"/>
			<point x="454" y="347" type="curve" smooth="yes"/>
			<point x="465" y="455"/>
			<point x="424" y="650"/>
			<point x="273" y="650" type="curve" smooth="yes"/>
			<point x="128" y="650"/>
			<point x="61" y="477"/>
			<point x="43" y="299" type="curve" smooth="yes"/>
			<point x="29" y="164"/>
			<point x="85" y="-4"/>
		</contour>
		<contour>
			<point x="212" y="42" type="curve" smooth="yes"/>
			<point x="133" y="42"/>
			<point x="80" y="162"/>
			<point x="93" y="292" type="curve" smooth="yes"/>
			<point x="104" y="399"/>
			<point x="139" y="604"/>
			<point x="273" y="604" type="curve" smooth="yes"/>
			<point x="386" y="604"/>
			<point x="414" y="439"/>
			<point x="403" y="337" type="curve" smooth="yes"/>
			<point x="390" y="214"/>
			<point x="316" y="42"/>
		</contour>
	</outline>
</glyph>
<glyph name="P" format="2">
	<advance width="446"/>
	<unicode hex="0050"/>
	<outline>
		<contour>
			<point x="103" y="294" type="line"/>
			<point x="282" y="293"/>
			<point x="436" y="336"/>
			<point x="450" y="472" type="curve" smooth="yes"/>
			<point x="462" y="593"/>
			<point x="331" y="650"/>
			<point x="124" y="650" type="curve"/>
			<point x="135" y="604" type="line"/>
			<point x="307" y="604"/>
			<point x="408" y="557"/>
			<point x="400" y="477" type="curve" smooth="yes"/>
			<point x="389" y="372"/>
			<point x="267" y="338"/>
			<point x="107" y="339" type="curve"/>
		</contour>
		<contour>
			<point x="57" y="0" type="curve" smooth="yes"/>
			<point x="79" y="0"/>
			<point x="81" y="19"/>
			<point x="82" y="29" type="curve" smooth="yes"/>
			<point x="145" y="619" type="line"/>
			<point x="124" y="650" type="line"/>
			<point x="104" y="650"/>
			<point x="97" y="640"/>
			<point x="95" y="623" type="curve" smooth="yes"/>
			<point x="32" y="31" type="line" smooth="yes"/>
			<point x="30" y="16"/>
			<point x="39" y="0"/>
		</contour>
	</outline>
</glyph>
<glyph name="Q" format="2">
	<advance width="501"/>
	<unicode hex="0051"/>
	<outline>
		<contour>
			<point x="401" y="-20" type="curve" smooth="yes"/>
			<point x="414" y="-14"/>
			<point x="413" y="6"/>
			<point x="402" y="22" type="curve" smooth="yes"/>
			<point x="291" y="172" type="line" smooth="yes"/>
			<point x="279" y="190"/>
			<point x="259" y="200"/>
			<point x="246" y="188" type="curve" smooth="yes"/>
			<point x="235" y="179"/>
			<point x="236" y="163"/>
			<point x="250" y="144" type="curve" smooth="yes"/>
			<point x="360" y="-6" type="line" smooth="yes"/>
			<point x="372" y="-21"/>
			<point x="390" y="-28"/>
		</contour>
		<contour>
			<point x="211" y="-4" type="curve" smooth="yes"/>
			<point x="339" y="-4"/>
			<point x="436" y="169"/>
			<point x="454" y="347" type="curve" smooth="yes"/>
			<point x="465" y="455"/>
			<point x="424" y="650"/>
			<point x="273" y="650" type="curve" smooth="yes"/>
			<point x="128" y="650"/>
			<point x="61" y="477"/>
			<point x="43" y="299" type="curve" smooth="yes"/>
			<point x="29" y="164"/>
			<point x="85" y="-4"/>
		</contour>
		<contour>
			<point x="212" y="42" type="curve" smooth="yes"/>
			<point x="133" y="42"/>
			<point x="80" y="162"/>
			<point x="93" y="292" type="curve" smooth="yes"/>
			<point x="104" y="399"/>
			<point x="139" y="604"/>
			<point x="273" y="604" type="curve" smooth="yes"/>
			<point x="386" y="604"/>
			<point x="414" y="439"/>
			<point x="403" y="337" type="curve" smooth="yes"/>
			<point x="390" y="214"/>
			<point x="316" y="42"/>
		</contour>
	</outline>
</glyph>
<glyph name="R" format="2">
  <advance width="470"/>
  <unicode hex="0052"/>
  <outline>
    <contour>
      <point x="57" y="0" type="curve" smooth="yes"/>
      <point x="79" y="0"/>
      <point x="81" y="16"/>
      <point x="83" y="31" type="curve" smooth="yes"/>
      <point x="143" y="604" type="line"/>
      <point x="316" y="602"/>
      <point x="400" y="567"/>
      <point x="391" y="491" type="curve" smooth="yes"/>
      <point x="382" y="413"/>
      <point x="256" y="348"/>
      <point x="92" y="348" type="curve"/>
      <point x="88" y="304" type="line"/>
      <point x="284" y="304"/>
      <point x="432" y="380"/>
      <point x="441" y="486" type="curve" smooth="yes"/>
      <point x="451" y="606"/>
      <point x="338" y="650"/>
      <point x="124" y="650" type="curve" smooth="yes"/>
      <point x="102" y="650"/>
      <point x="97" y="639"/>
      <point x="95" y="623" type="curve" smooth="yes"/>
      <point x="33" y="33" type="line" smooth="yes"/>
      <point x="31" y="16"/>
      <point x="39" y="0"/>
    </contour>
    <contour>
      <point x="366" y="0" type="curve" smooth="yes"/>
      <point x="376" y="0"/>
      <point x="386" y="7"/>
      <point x="388" y="15" type="curve" smooth="yes"/>
      <point x="390" y="23"/>
      <point x="388" y="35"/>
      <point x="376" y="50" type="curve" smooth="yes"/>
      <point x="156" y="329" type="line"/>
      <point x="98" y="322" type="line"/>
      <point x="335" y="19" type="line" smooth="yes"/>
      <point x="345" y="6"/>
      <point x="358" y="0"/>
    </contour>
  </outline>
</glyph>
<glyph name="S" format="2">
	<advance width="422"/>
	<unicode hex="0053"/>
	<outline>
		<contour>
			<point x="154" y="-4" type="curve" smooth="yes"/>
			<point x="270" y="-4"/>
			<point x="355" y="49"/>
			<point x="367" y="162" type="curve" smooth="yes"/>
			<point x="377" y="258"/>
			<point x="316" y="323"/>
			<point x="236" y="369" type="curve" smooth="yes"/>
			<point x="154" y="416"/>
			<point x="103" y="455"/>
			<point x="109" y="512" type="curve" smooth="yes"/>
			<point x="115" y="569"/>
			<point x="170" y="608"/>
			<point x="265" y="608" type="curve" smooth="yes"/>
			<point x="316" y="608"/>
			<point x="347" y="583"/>
			<point x="360" y="547" type="curve" smooth="yes"/>
			<point x="365" y="534"/>
			<point x="379" y="528"/>
			<point x="392" y="532" type="curve" smooth="yes"/>
			<point x="406" y="536"/>
			<point x="408" y="552"/>
			<point x="402" y="570" type="curve" smooth="yes"/>
			<point x="386" y="617"/>
			<point x="341" y="654"/>
			<point x="263" y="654" type="curve" smooth="yes"/>
			<point x="135" y="654"/>
			<point x="69" y="590"/>
			<point x="61" y="516" type="curve" smooth="yes"/>
			<point x="53" y="436"/>
			<point x="119" y="378"/>
			<point x="198" y="333" type="curve" smooth="yes"/>
			<point x="286" y="283"/>
			<point x="324" y="236"/>
			<point x="318" y="169" type="curve" smooth="yes"/>
			<point x="310" y="82"/>
			<point x="240" y="42"/>
			<point x="170" y="42" type="curve" smooth="yes"/>
			<point x="107" y="42"/>
			<point x="70" y="68"/>
			<point x="62" y="99" type="curve" smooth="yes"/>
			<point x="58" y="116"/>
			<point x="43" y="122"/>
			<point x="29" y="118" type="curve" smooth="yes"/>
			<point x="14" y="114"/>
			<point x="12" y="98"/>
			<point x="16" y="82" type="curve" smooth="yes"/>
			<point x="29" y="30"/>
			<point x="85" y="-4"/>
		</contour>
	</outline>
</glyph>
<glyph name="T" format="2">
  <advance width="497"/>
  <unicode hex="0054"/>
  <outline>
    <contour>
      <point x="214" y="0" type="curve" smooth="yes"/>
      <point x="234" y="0"/>
      <point x="240" y="18"/>
      <point x="242" y="34" type="curve" smooth="yes"/>
      <point x="304" y="624" type="line"/>
      <point x="254" y="624" type="line"/>
      <point x="192" y="37" type="line" smooth="yes"/>
      <point x="190" y="17"/>
      <point x="195" y="0"/>
    </contour>
    <contour>
      <point x="94" y="600" type="curve" smooth="yes"/>
      <point x="468" y="600" type="line" smooth="yes"/>
      <point x="488" y="600"/>
      <point x="492" y="613"/>
      <point x="492" y="625" type="curve" smooth="yes"/>
      <point x="492" y="637"/>
      <point x="485" y="650"/>
      <point x="465" y="650" type="curve" smooth="yes"/>
      <point x="91" y="650" type="line" smooth="yes"/>
      <point x="71" y="650"/>
      <point x="66" y="637"/>
      <point x="66" y="625" type="curve" smooth="yes"/>
      <point x="66" y="613"/>
      <point x="74" y="600"/>
    </contour>
  </outline>
</glyph>
<glyph name="U" format="2">
	<advance width="526"/>
	<unicode hex="0055"/>
	<outline>
		<contour>
			<point x="219" y="-4" type="curve" smooth="yes"/>
			<point x="336" y="-4"/>
			<point x="439" y="138"/>
			<point x="456" y="301" type="curve" smooth="yes"/>
			<point x="490" y="623" type="line" smooth="yes"/>
			<point x="492" y="638"/>
			<point x="483" y="649"/>
			<point x="465" y="649" type="curve" smooth="yes"/>
			<point x="447" y="649"/>
			<point x="441" y="637"/>
			<point x="440" y="625" type="curve" smooth="yes"/>
			<point x="405" y="301" type="line" smooth="yes"/>
			<point x="392" y="182"/>
			<point x="314" y="42"/>
			<point x="220" y="42" type="curve" smooth="yes"/>
			<point x="141" y="42"/>
			<point x="87" y="162"/>
			<point x="101" y="292" type="curve" smooth="yes"/>
			<point x="136" y="619" type="line" smooth="yes"/>
			<point x="138" y="634"/>
			<point x="128" y="650"/>
			<point x="113" y="650" type="curve" smooth="yes"/>
			<point x="97" y="650"/>
			<point x="87" y="636"/>
			<point x="85" y="620" type="curve" smooth="yes"/>
			<point x="51" y="295" type="line" smooth="yes"/>
			<point x="37" y="160"/>
			<point x="94" y="-4"/>
		</contour>
	</outline>
</glyph>
<glyph name="V" format="2">
  <advance width="459"/>
  <unicode hex="0056"/>
  <outline>
    <contour>
      <point x="187" y="0" type="curve" smooth="yes"/>
      <point x="206" y="0"/>
      <point x="209" y="11"/>
      <point x="215" y="25" type="curve" smooth="yes"/>
      <point x="452" y="618" type="line" smooth="yes"/>
      <point x="460" y="638"/>
      <point x="450" y="650"/>
      <point x="435" y="650" type="curve" smooth="yes"/>
      <point x="416" y="650"/>
      <point x="408" y="642"/>
      <point x="401" y="625" type="curve" smooth="yes"/>
      <point x="222" y="171" type="line"/>
      <point x="185" y="74" type="line"/>
      <point x="199" y="72" type="line"/>
      <point x="186" y="169" type="line"/>
      <point x="117" y="626" type="line" smooth="yes"/>
      <point x="115" y="636"/>
      <point x="111" y="650"/>
      <point x="89" y="650" type="curve" smooth="yes"/>
      <point x="71" y="650"/>
      <point x="65" y="639"/>
      <point x="67" y="624" type="curve" smooth="yes"/>
      <point x="158" y="28" type="line" smooth="yes"/>
      <point x="160" y="15"/>
      <point x="169" y="0"/>
    </contour>
  </outline>
</glyph>
<glyph name="W" format="2">
  <advance width="759"/>
  <unicode hex="0057"/>
  <outline>
    <contour>
      <point x="166" y="0" type="curve"/>
      <point x="186" y="0"/>
      <point x="191" y="15"/>
      <point x="195" y="26" type="curve" smooth="yes"/>
      <point x="379" y="495" type="line"/>
      <point x="409" y="595" type="line"/>
      <point x="397" y="596" type="line"/>
      <point x="408" y="492" type="line"/>
      <point x="478" y="25" type="line" smooth="yes"/>
      <point x="480" y="13"/>
      <point x="488" y="0"/>
      <point x="505" y="0" type="curve"/>
      <point x="524" y="0"/>
      <point x="528" y="11"/>
      <point x="534" y="25" type="curve" smooth="yes"/>
      <point x="772" y="618" type="line" smooth="yes"/>
      <point x="781" y="639"/>
      <point x="767" y="650"/>
      <point x="753" y="650" type="curve" smooth="yes"/>
      <point x="734" y="650"/>
      <point x="729" y="644"/>
      <point x="721" y="625" type="curve" smooth="yes"/>
      <point x="548" y="188" type="line"/>
      <point x="503" y="54" type="line"/>
      <point x="515" y="52" type="line"/>
      <point x="502" y="192" type="line"/>
      <point x="437" y="626" type="line" smooth="yes"/>
      <point x="435" y="637"/>
      <point x="431" y="650"/>
      <point x="407" y="650" type="curve"/>
      <point x="391" y="650"/>
      <point x="382" y="637"/>
      <point x="378" y="626" type="curve" smooth="yes"/>
      <point x="208" y="189" type="line"/>
      <point x="163" y="59" type="line"/>
      <point x="176" y="57" type="line"/>
      <point x="162" y="189" type="line"/>
      <point x="97" y="626" type="line" smooth="yes"/>
      <point x="95" y="636"/>
      <point x="91" y="650"/>
      <point x="69" y="650" type="curve"/>
      <point x="51" y="650"/>
      <point x="45" y="639"/>
      <point x="47" y="624" type="curve" smooth="yes"/>
      <point x="138" y="28" type="line" smooth="yes"/>
      <point x="140" y="12"/>
      <point x="152" y="0"/>
    </contour>
  </outline>
</glyph>
<glyph name="X" format="2">
  <advance width="458"/>
  <unicode hex="0058"/>
  <outline>
    <contour>
      <point x="12" y="6" type="curve" smooth="yes"/>
      <point x="23" y="-3"/>
      <point x="40" y="-2"/>
      <point x="50" y="13" type="curve" smooth="yes"/>
      <point x="240" y="301" type="line"/>
      <point x="246" y="301" type="line"/>
      <point x="447" y="609" type="line" smooth="yes"/>
      <point x="457" y="624"/>
      <point x="454" y="638"/>
      <point x="445" y="645" type="curve" smooth="yes"/>
      <point x="434" y="653"/>
      <point x="415" y="652"/>
      <point x="405" y="637" type="curve" smooth="yes"/>
      <point x="220" y="352" type="line"/>
      <point x="213" y="351" type="line"/>
      <point x="7" y="38" type="line" smooth="yes"/>
      <point x="-1" y="26"/>
      <point x="2" y="13"/>
    </contour>
    <contour>
      <point x="378" y="3" type="curve" smooth="yes"/>
      <point x="387" y="8"/>
      <point x="394" y="20"/>
      <point x="387" y="35" type="curve" smooth="yes"/>
      <point x="248" y="345" type="line"/>
      <point x="120" y="631" type="line" smooth="yes"/>
      <point x="112" y="650"/>
      <point x="91" y="654"/>
      <point x="80" y="649" type="curve" smooth="yes"/>
      <point x="68" y="645"/>
      <point x="65" y="632"/>
      <point x="73" y="614" type="curve" smooth="yes"/>
      <point x="210" y="308" type="line"/>
      <point x="339" y="20" type="line" smooth="yes"/>
      <point x="347" y="1"/>
      <point x="365" y="-3"/>
    </contour>
  </outline>
</glyph>
<glyph name="Y" format="2">
  <advance width="494"/>
  <unicode hex="0059"/>
  <outline>
    <contour>
      <point x="82" y="648" type="curve" smooth="yes"/>
      <point x="65" y="642"/>
      <point x="63" y="629"/>
      <point x="70" y="613" type="curve" smooth="yes"/>
      <point x="240" y="241" type="line"/>
      <point x="273" y="290" type="line"/>
      <point x="117" y="630" type="line" smooth="yes"/>
      <point x="112" y="642"/>
      <point x="101" y="655"/>
    </contour>
    <contour>
      <point x="96" y="6" type="curve" smooth="yes"/>
      <point x="107" y="-3"/>
      <point x="125" y="-3"/>
      <point x="134" y="12" type="curve" smooth="yes"/>
      <point x="485" y="609" type="line" smooth="yes"/>
      <point x="494" y="624"/>
      <point x="490" y="639"/>
      <point x="475" y="647" type="curve" smooth="yes"/>
      <point x="463" y="653"/>
      <point x="451" y="650"/>
      <point x="442" y="635" type="curve" smooth="yes"/>
      <point x="92" y="38" type="line" smooth="yes"/>
      <point x="85" y="26"/>
      <point x="86" y="13"/>
    </contour>
  </outline>
</glyph>
<glyph name="Z" format="2">
  <advance width="476"/>
  <unicode hex="005A"/>
  <outline>
    <contour>
      <point x="40" y="0" type="curve"/>
      <point x="374" y="0" type="line" smooth="yes"/>
      <point x="394" y="0"/>
      <point x="399" y="13"/>
      <point x="398" y="25" type="curve" smooth="yes"/>
      <point x="397" y="37"/>
      <point x="391" y="50"/>
      <point x="371" y="50" type="curve" smooth="yes"/>
      <point x="53" y="50" type="line"/>
      <point x="66" y="25" type="line"/>
      <point x="456" y="609" type="line" smooth="yes"/>
      <point x="470" y="631"/>
      <point x="454" y="650"/>
      <point x="436" y="650" type="curve"/>
      <point x="101" y="650" type="line" smooth="yes"/>
      <point x="81" y="650"/>
      <point x="75" y="637"/>
      <point x="76" y="625" type="curve" smooth="yes"/>
      <point x="77" y="613"/>
      <point x="84" y="600"/>
      <point x="104" y="600" type="curve" smooth="yes"/>
      <point x="424" y="600" type="line"/>
      <point x="411" y="625" type="line"/>
      <point x="18" y="39" type="line" smooth="yes"/>
      <point x="6" y="21"/>
      <point x="17" y="0"/>
    </contour>
  </outline>
</glyph>
<glyph name="bracketleft" format="2">
	<advance width="263"/>
	<unicode hex="005B"/>
	<outline>
		<contour>
			<point x="146" y="618" type="line" smooth="yes"/>
			<point x="148" y="636"/>
			<point x="147" y="650"/>
			<point x="126" y="650" type="curve" smooth="yes"/>
			<point x="105" y="650"/>
			<point x="97" y="639"/>
			<point x="95" y="623" type="curve" smooth="yes"/>
			<point x="0" y="-273" type="line" smooth="yes"/>
			<point x="-2" y="-288"/>
			<point x="7" y="-300"/>
			<point x="27" y="-300" type="curve" smooth="yes"/>
			<point x="49" y="-300"/>
			<point x="50" y="-283"/>
			<point x="51" y="-273" type="curve" smooth="yes"/>
		</contour>
		<contour>
			<point x="24" y="-300" type="line"/>
			<point x="169" y="-300" type="line" smooth="yes"/>
			<point x="186" y="-300"/>
			<point x="194" y="-288"/>
			<point x="193" y="-277" type="curve" smooth="yes"/>
			<point x="193" y="-266"/>
			<point x="184" y="-255"/>
			<point x="166" y="-255" type="curve" smooth="yes"/>
			<point x="27" y="-255" type="line"/>
		</contour>
		<contour>
			<point x="122" y="605" type="line"/>
			<point x="265" y="605" type="line" smooth="yes"/>
			<point x="282" y="605"/>
			<point x="290" y="616"/>
			<point x="290" y="627" type="curve" smooth="yes"/>
			<point x="290" y="638"/>
			<point x="281" y="650"/>
			<point x="262" y="650" type="curve" smooth="yes"/>
			<point x="124" y="650" type="line"/>
		</contour>
	</outline>
</glyph>
<glyph name="backslash" format="2">
	<advance width="301"/>
	<unicode hex="005C"/>
	<outline>
		<contour>
			<point x="52" y="650" type="curve" smooth="yes"/>
			<point x="36" y="650"/>
			<point x="21" y="638"/>
			<point x="28" y="619" type="curve" smooth="yes"/>
			<point x="255" y="-16" type="line" smooth="yes"/>
			<point x="261" y="-33"/>
			<point x="272" y="-39"/>
			<point x="283" y="-39" type="curve" smooth="yes"/>
			<point x="298" y="-39"/>
			<point x="314" y="-26"/>
			<point x="306" y="-5" type="curve" smooth="yes"/>
			<point x="79" y="630" type="line" smooth="yes"/>
			<point x="74" y="644"/>
			<point x="63" y="650"/>
		</contour>
	</outline>
</glyph>
<glyph name="asciicircum" format="2">
  <advance width="411"/>
  <unicode hex="005E"/>
  <outline>
    <contour>
      <point x="106" y="294" type="curve" smooth="yes"/>
      <point x="243" y="409" type="line"/>
      <point x="201" y="413" type="line"/>
      <point x="299" y="296" type="line" smooth="yes"/>
      <point x="310" y="283"/>
      <point x="325" y="285"/>
      <point x="334" y="293" type="curve" smooth="yes"/>
      <point x="344" y="302"/>
      <point x="347" y="317"/>
      <point x="337" y="329" type="curve" smooth="yes"/>
      <point x="244" y="439" type="line" smooth="yes"/>
      <point x="236" y="449"/>
      <point x="219" y="451"/>
      <point x="205" y="439" type="curve" smooth="yes"/>
      <point x="72" y="328" type="line" smooth="yes"/>
      <point x="60" y="318"/>
      <point x="61" y="304"/>
      <point x="69" y="295" type="curve" smooth="yes"/>
      <point x="78" y="286"/>
      <point x="90" y="281"/>
    </contour>
  </outline>
</glyph>
<glyph name="grave" format="2">
  <advance width="500"/>
  <unicode hex="0060"/>
  <outline>
    <contour>
      <point x="264" y="462" type="line" smooth="yes"/>
      <point x="273" y="447"/>
      <point x="286" y="444"/>
      <point x="295" y="449" type="curve" smooth="yes"/>
      <point x="303" y="453"/>
      <point x="306" y="463"/>
      <point x="300" y="477" type="curve" smooth="yes"/>
      <point x="258" y="573" type="line" smooth="yes"/>
      <point x="252" y="586"/>
      <point x="239" y="591"/>
      <point x="228" y="591" type="curve" smooth="yes"/>
      <point x="212" y="590"/>
      <point x="197" y="576"/>
      <point x="210" y="554" type="curve" smooth="yes"/>
    </contour>
  </outline>
</glyph>
<glyph name="a" format="2">
	<advance width="354"/>
	<unicode hex="0061"/>
	<outline>
		<contour>
			<point x="127" y="-4" type="curve" smooth="yes"/>
			<point x="171" y="-4"/>
			<point x="208" y="35"/>
			<point x="231" y="82" type="curve"/>
			<point x="249" y="244" type="line"/>
			<point x="245" y="244" type="line"/>
			<point x="244" y="239"/>
			<point x="240" y="213"/>
			<point x="239" y="208" type="curve" smooth="yes"/>
			<point x="222" y="147"/>
			<point x="176" y="42"/>
			<point x="128" y="42" type="curve" smooth="yes"/>
			<point x="76" y="42"/>
			<point x="57" y="108"/>
			<point x="64" y="173" type="curve" smooth="yes"/>
			<point x="73" y="258"/>
			<point x="114" y="304"/>
			<point x="163" y="304" type="curve" smooth="yes"/>
			<point x="191" y="304"/>
			<point x="232" y="296"/>
			<point x="251" y="267" type="curve"/>
			<point x="256" y="313" type="line"/>
			<point x="231" y="341"/>
			<point x="194" y="350"/>
			<point x="164" y="350" type="curve" smooth="yes"/>
			<point x="90" y="350"/>
			<point x="26" y="291"/>
			<point x="14" y="176" type="curve" smooth="yes"/>
			<point x="5" y="88"/>
			<point x="40" y="-4"/>
		</contour>
		<contour>
			<point x="244" y="0" type="curve" smooth="yes"/>
			<point x="256" y="0"/>
			<point x="269" y="10"/>
			<point x="271" y="28" type="curve" smooth="yes"/>
			<point x="302" y="320" type="line" smooth="yes"/>
			<point x="304" y="340"/>
			<point x="292" y="350"/>
			<point x="280" y="350" type="curve" smooth="yes"/>
			<point x="267" y="350"/>
			<point x="254" y="341"/>
			<point x="252" y="323" type="curve" smooth="yes"/>
			<point x="221" y="28" type="line" smooth="yes"/>
			<point x="219" y="9"/>
			<point x="231" y="0"/>
		</contour>
	</outline>
</glyph>
<glyph name="b" format="2">
  <advance width="355"/>
  <unicode hex="0062"/>
  <outline>
    <contour>
      <point x="48" y="0" type="curve" smooth="yes"/>
      <point x="59" y="0"/>
      <point x="71" y="7"/>
      <point x="73" y="22" type="curve" smooth="yes"/>
      <point x="137" y="624" type="line" smooth="yes"/>
      <point x="139" y="640"/>
      <point x="126" y="650"/>
      <point x="112" y="650" type="curve" smooth="yes"/>
      <point x="101" y="650"/>
      <point x="89" y="644"/>
      <point x="87" y="629" type="curve" smooth="yes"/>
      <point x="23" y="27" type="line" smooth="yes"/>
      <point x="21" y="9"/>
      <point x="34" y="0"/>
    </contour>
    <contour>
      <point x="153" y="-1" type="curve" smooth="yes"/>
      <point x="227" y="-1"/>
      <point x="291" y="55"/>
      <point x="303" y="170" type="curve" smooth="yes"/>
      <point x="312" y="258"/>
      <point x="277" y="354"/>
      <point x="190" y="354" type="curve" smooth="yes"/>
      <point x="146" y="354"/>
      <point x="109" y="311"/>
      <point x="86" y="264" type="curve"/>
      <point x="78" y="138" type="line"/>
      <point x="95" y="199"/>
      <point x="141" y="308"/>
      <point x="189" y="308" type="curve" smooth="yes"/>
      <point x="241" y="308"/>
      <point x="260" y="238"/>
      <point x="253" y="173" type="curve" smooth="yes"/>
      <point x="244" y="88"/>
      <point x="203" y="45"/>
      <point x="154" y="45" type="curve" smooth="yes"/>
      <point x="126" y="45"/>
      <point x="85" y="50"/>
      <point x="66" y="79" type="curve"/>
      <point x="61" y="33" type="line"/>
      <point x="86" y="5"/>
      <point x="123" y="-1"/>
    </contour>
  </outline>
</glyph>
<glyph name="c" format="2">
	<advance width="302"/>
	<unicode hex="0063"/>
	<outline>
		<contour>
			<point x="129" y="-4" type="curve" smooth="yes"/>
			<point x="185" y="-4"/>
			<point x="224" y="32"/>
			<point x="249" y="77" type="curve" smooth="yes"/>
			<point x="254" y="87"/>
			<point x="251" y="101"/>
			<point x="239" y="108" type="curve" smooth="yes"/>
			<point x="226" y="115"/>
			<point x="211" y="111"/>
			<point x="206" y="101" type="curve" smooth="yes"/>
			<point x="187" y="65"/>
			<point x="160" y="42"/>
			<point x="134" y="42" type="curve" smooth="yes"/>
			<point x="78" y="42"/>
			<point x="59" y="108"/>
			<point x="66" y="173" type="curve" smooth="yes"/>
			<point x="75" y="258"/>
			<point x="116" y="304"/>
			<point x="165" y="304" type="curve" smooth="yes"/>
			<point x="188" y="304"/>
			<point x="206" y="295"/>
			<point x="216" y="278" type="curve" smooth="yes"/>
			<point x="221" y="270"/>
			<point x="233" y="265"/>
			<point x="246" y="272" type="curve" smooth="yes"/>
			<point x="258" y="279"/>
			<point x="261" y="294"/>
			<point x="256" y="301" type="curve" smooth="yes"/>
			<point x="237" y="331"/>
			<point x="207" y="350"/>
			<point x="166" y="350" type="curve" smooth="yes"/>
			<point x="92" y="350"/>
			<point x="28" y="291"/>
			<point x="16" y="176" type="curve" smooth="yes"/>
			<point x="7" y="88"/>
			<point x="42" y="-4"/>
		</contour>
	</outline>
</glyph>
<glyph name="d" format="2">
  <advance width="362"/>
  <unicode hex="0064"/>
  <outline>
    <contour>
      <point x="131" y="-1" type="curve" smooth="yes"/>
      <point x="175" y="-1"/>
      <point x="212" y="35"/>
      <point x="235" y="82" type="curve"/>
      <point x="249" y="244" type="line"/>
      <point x="234" y="159"/>
      <point x="188" y="45"/>
      <point x="132" y="45" type="curve" smooth="yes"/>
      <point x="80" y="45"/>
      <point x="61" y="108"/>
      <point x="68" y="173" type="curve" smooth="yes"/>
      <point x="77" y="258"/>
      <point x="118" y="308"/>
      <point x="167" y="308" type="curve" smooth="yes"/>
      <point x="195" y="308"/>
      <point x="236" y="296"/>
      <point x="255" y="267" type="curve"/>
      <point x="260" y="313" type="line"/>
      <point x="235" y="341"/>
      <point x="198" y="354"/>
      <point x="168" y="354" type="curve" smooth="yes"/>
      <point x="94" y="354"/>
      <point x="30" y="291"/>
      <point x="18" y="176" type="curve" smooth="yes"/>
      <point x="9" y="88"/>
      <point x="44" y="-1"/>
    </contour>
    <contour>
      <point x="248" y="0" type="curve" smooth="yes"/>
      <point x="260" y="0"/>
      <point x="273" y="10"/>
      <point x="275" y="28" type="curve" smooth="yes"/>
      <point x="337" y="620" type="line" smooth="yes"/>
      <point x="339" y="640"/>
      <point x="327" y="650"/>
      <point x="315" y="650" type="curve" smooth="yes"/>
      <point x="302" y="650"/>
      <point x="289" y="641"/>
      <point x="287" y="623" type="curve" smooth="yes"/>
      <point x="225" y="28" type="line" smooth="yes"/>
      <point x="223" y="9"/>
      <point x="235" y="0"/>
    </contour>
  </outline>
</glyph>
<glyph name="e" format="2">
	<advance width="310"/>
	<unicode hex="0065"/>
	<outline>
		<contour>
			<point x="132" y="-4" type="curve" smooth="yes"/>
			<point x="188" y="-4"/>
			<point x="227" y="32"/>
			<point x="252" y="77" type="curve" smooth="yes"/>
			<point x="257" y="87"/>
			<point x="254" y="101"/>
			<point x="242" y="108" type="curve" smooth="yes"/>
			<point x="229" y="115"/>
			<point x="214" y="111"/>
			<point x="209" y="101" type="curve" smooth="yes"/>
			<point x="190" y="65"/>
			<point x="163" y="42"/>
			<point x="137" y="42" type="curve" smooth="yes"/>
			<point x="81" y="42"/>
			<point x="62" y="108"/>
			<point x="69" y="173" type="curve" smooth="yes"/>
			<point x="78" y="258"/>
			<point x="119" y="304"/>
			<point x="168" y="304" type="curve" smooth="yes"/>
			<point x="212" y="304"/>
			<point x="222" y="281"/>
			<point x="206" y="266" type="curve" smooth="yes"/>
			<point x="179" y="240"/>
			<point x="113" y="189"/>
			<point x="61" y="157" type="curve"/>
			<point x="68" y="106" type="line"/>
			<point x="156" y="164"/>
			<point x="290" y="250"/>
			<point x="259" y="301" type="curve" smooth="yes"/>
			<point x="240" y="332"/>
			<point x="210" y="350"/>
			<point x="169" y="350" type="curve" smooth="yes"/>
			<point x="95" y="350"/>
			<point x="31" y="291"/>
			<point x="19" y="176" type="curve" smooth="yes"/>
			<point x="10" y="88"/>
			<point x="45" y="-4"/>
		</contour>
	</outline>
</glyph>
<glyph name="g" format="2">
  <advance width="352"/>
  <unicode hex="0067"/>
  <outline>
    <contour>
      <point x="131" y="-1" type="curve" smooth="yes"/>
      <point x="175" y="-1"/>
      <point x="212" y="35"/>
      <point x="235" y="82" type="curve"/>
      <point x="249" y="244" type="line"/>
      <point x="234" y="159"/>
      <point x="188" y="45"/>
      <point x="132" y="45" type="curve" smooth="yes"/>
      <point x="80" y="45"/>
      <point x="61" y="108"/>
      <point x="68" y="173" type="curve" smooth="yes"/>
      <point x="77" y="258"/>
      <point x="118" y="308"/>
      <point x="167" y="308" type="curve" smooth="yes"/>
      <point x="195" y="308"/>
      <point x="236" y="296"/>
      <point x="255" y="267" type="curve"/>
      <point x="260" y="313" type="line"/>
      <point x="235" y="341"/>
      <point x="198" y="354"/>
      <point x="168" y="354" type="curve" smooth="yes"/>
      <point x="94" y="354"/>
      <point x="30" y="291"/>
      <point x="18" y="176" type="curve" smooth="yes"/>
      <point x="9" y="88"/>
      <point x="44" y="-1"/>
    </contour>
    <contour>
      <point x="103" y="-300" type="curve" smooth="yes"/>
      <point x="188" y="-300"/>
      <point x="247" y="-232"/>
      <point x="259" y="-123" type="curve" smooth="yes"/>
      <point x="306" y="320" type="line" smooth="yes"/>
      <point x="308" y="340"/>
      <point x="296" y="350"/>
      <point x="284" y="350" type="curve" smooth="yes"/>
      <point x="271" y="350"/>
      <point x="258" y="341"/>
      <point x="256" y="323" type="curve" smooth="yes"/>
      <point x="209" y="-123" type="line" smooth="yes"/>
      <point x="200" y="-204"/>
      <point x="160" y="-254"/>
      <point x="104" y="-254" type="curve" smooth="yes"/>
      <point x="76" y="-254"/>
      <point x="48" y="-243"/>
      <point x="31" y="-226" type="curve" smooth="yes"/>
      <point x="23" y="-218"/>
      <point x="12" y="-216"/>
      <point x="3" y="-222" type="curve" smooth="yes"/>
      <point x="-12" y="-232"/>
      <point x="-13" y="-246"/>
      <point x="0" y="-259" type="curve" smooth="yes"/>
      <point x="24" y="-284"/>
      <point x="64" y="-300"/>
    </contour>
  </outline>
</glyph>
<glyph name="h" format="2">
  <advance width="351"/>
  <unicode hex="0068"/>
  <outline>
    <contour>
      <point x="45" y="0" type="curve" smooth="yes"/>
      <point x="58" y="0"/>
      <point x="70" y="7"/>
      <point x="72" y="23" type="curve" smooth="yes"/>
      <point x="136" y="623" type="line" smooth="yes"/>
      <point x="138" y="641"/>
      <point x="128" y="650"/>
      <point x="115" y="650" type="curve" smooth="yes"/>
      <point x="102" y="650"/>
      <point x="88" y="641"/>
      <point x="86" y="623" type="curve" smooth="yes"/>
      <point x="22" y="23" type="line" smooth="yes"/>
      <point x="20" y="8"/>
      <point x="32" y="0"/>
    </contour>
    <contour>
      <point x="246" y="0" type="curve" smooth="yes"/>
      <point x="272" y="0"/>
      <point x="272" y="18"/>
      <point x="273" y="31" type="curve" smooth="yes"/>
      <point x="296" y="234" type="line" smooth="yes"/>
      <point x="304" y="308"/>
      <point x="274" y="354"/>
      <point x="218" y="354" type="curve" smooth="yes"/>
      <point x="163" y="354"/>
      <point x="124" y="310"/>
      <point x="81" y="238" type="curve"/>
      <point x="74" y="128" type="line"/>
      <point x="134" y="264"/>
      <point x="173" y="305"/>
      <point x="215" y="305" type="curve" smooth="yes"/>
      <point x="239" y="305"/>
      <point x="251" y="278"/>
      <point x="246" y="234" type="curve" smooth="yes"/>
      <point x="224" y="31" type="line" smooth="yes"/>
      <point x="222" y="15"/>
      <point x="224" y="0"/>
    </contour>
  </outline>
</glyph>
<glyph name="i" format="2">
	<advance width="147"/>
	<unicode hex="0069"/>
	<outline>
		<contour>
			<point x="36" y="0" type="curve" smooth="yes"/>
			<point x="48" y="0"/>
			<point x="61" y="10"/>
			<point x="63" y="28" type="curve" smooth="yes"/>
			<point x="94" y="320" type="line" smooth="yes"/>
			<point x="96" y="340"/>
			<point x="84" y="350"/>
			<point x="72" y="350" type="curve" smooth="yes"/>
			<point x="59" y="350"/>
			<point x="46" y="341"/>
			<point x="44" y="323" type="curve" smooth="yes"/>
			<point x="13" y="28" type="line" smooth="yes"/>
			<point x="11" y="9"/>
			<point x="23" y="0"/>
		</contour>
		<contour>
			<point x="86" y="428" type="curve" smooth="yes"/>
			<point x="106" y="428"/>
			<point x="123" y="447"/>
			<point x="123" y="467" type="curve" smooth="yes"/>
			<point x="123" y="487"/>
			<point x="106" y="505"/>
			<point x="86" y="505" type="curve" smooth="yes"/>
			<point x="65" y="505"/>
			<point x="46" y="487"/>
			<point x="46" y="467" type="curve" smooth="yes"/>
			<point x="46" y="447"/>
			<point x="65" y="428"/>
		</contour>
	</outline>
</glyph>
<glyph name="j" format="2">
	<advance width="151"/>
	<unicode hex="006A"/>
	<outline>
		<contour>
			<point x="89" y="428" type="curve" smooth="yes"/>
			<point x="110" y="428"/>
			<point x="127" y="446"/>
			<point x="127" y="467" type="curve" smooth="yes"/>
			<point x="127" y="489"/>
			<point x="109" y="505"/>
			<point x="89" y="505" type="curve" smooth="yes"/>
			<point x="68" y="505"/>
			<point x="50" y="488"/>
			<point x="50" y="467" type="curve" smooth="yes"/>
			<point x="50" y="445"/>
			<point x="69" y="428"/>
		</contour>
		<contour>
			<point x="-105" y="-299" type="curve" smooth="yes"/>
			<point x="-26" y="-299"/>
			<point x="39" y="-237"/>
			<point x="51" y="-122" type="curve" smooth="yes"/>
			<point x="98" y="321" type="line" smooth="yes"/>
			<point x="100" y="341"/>
			<point x="88" y="351"/>
			<point x="76" y="351" type="curve" smooth="yes"/>
			<point x="63" y="351"/>
			<point x="50" y="342"/>
			<point x="48" y="324" type="curve" smooth="yes"/>
			<point x="1" y="-122" type="line" smooth="yes"/>
			<point x="-8" y="-207"/>
			<point x="-50" y="-253"/>
			<point x="-104" y="-253" type="curve" smooth="yes"/>
			<point x="-147" y="-253"/>
			<point x="-165" y="-244"/>
			<point x="-175" y="-227" type="curve" smooth="yes"/>
			<point x="-180" y="-219"/>
			<point x="-192" y="-214"/>
			<point x="-205" y="-221" type="curve" smooth="yes"/>
			<point x="-217" y="-228"/>
			<point x="-220" y="-243"/>
			<point x="-215" y="-250" type="curve" smooth="yes"/>
			<point x="-196" y="-280"/>
			<point x="-166" y="-299"/>
		</contour>
	</outline>
</glyph>
<glyph name="k" format="2">
	<advance width="287"/>
	<unicode hex="006B"/>
	<outline>
		<contour>
			<point x="41" y="0" type="curve" smooth="yes"/>
			<point x="57" y="0"/>
			<point x="67" y="7"/>
			<point x="69" y="26" type="curve" smooth="yes"/>
			<point x="133" y="621" type="line" smooth="yes"/>
			<point x="135" y="642"/>
			<point x="124" y="650"/>
			<point x="108" y="650" type="curve" smooth="yes"/>
			<point x="93" y="650"/>
			<point x="85" y="639"/>
			<point x="83" y="622" type="curve" smooth="yes"/>
			<point x="19" y="26" type="line" smooth="yes"/>
			<point x="17" y="10"/>
			<point x="28" y="0"/>
		</contour>
		<contour>
			<point x="222" y="0" type="curve" smooth="yes"/>
			<point x="232" y="0"/>
			<point x="242" y="6"/>
			<point x="244" y="17" type="curve" smooth="yes"/>
			<point x="245" y="24"/>
			<point x="244" y="32"/>
			<point x="236" y="42" type="curve" smooth="yes"/>
			<point x="117" y="185" type="line"/>
			<point x="79" y="153" type="line"/>
			<point x="191" y="19" type="line" smooth="yes"/>
			<point x="199" y="9"/>
			<point x="209" y="0"/>
		</contour>
		<contour>
			<point x="75" y="140" type="line"/>
			<point x="259" y="300" type="line" smooth="yes"/>
			<point x="270" y="310"/>
			<point x="276" y="319"/>
			<point x="277" y="328" type="curve" smooth="yes"/>
			<point x="277" y="340"/>
			<point x="269" y="350"/>
			<point x="256" y="350" type="curve" smooth="yes"/>
			<point x="247" y="351"/>
			<point x="237" y="347"/>
			<point x="225" y="337" type="curve" smooth="yes"/>
			<point x="80" y="210" type="line"/>
		</contour>
	</outline>
</glyph>
<glyph name="l" format="2">
  <advance width="162"/>
  <unicode hex="006C"/>
  <outline>
    <contour>
      <point x="45" y="0" type="curve" smooth="yes"/>
      <point x="61" y="0"/>
      <point x="71" y="7"/>
      <point x="73" y="26" type="curve" smooth="yes"/>
      <point x="137" y="621" type="line" smooth="yes"/>
      <point x="139" y="642"/>
      <point x="128" y="650"/>
      <point x="112" y="650" type="curve" smooth="yes"/>
      <point x="97" y="650"/>
      <point x="89" y="639"/>
      <point x="87" y="622" type="curve" smooth="yes"/>
      <point x="23" y="26" type="line" smooth="yes"/>
      <point x="21" y="10"/>
      <point x="32" y="0"/>
    </contour>
  </outline>
</glyph>
<glyph name="m" format="2">
  <advance width="516"/>
  <unicode hex="006D"/>
  <outline>
    <contour>
      <point x="36" y="0" type="curve" smooth="yes"/>
      <point x="59" y="0"/>
      <point x="61" y="18"/>
      <point x="62" y="30" type="curve" smooth="yes"/>
      <point x="94" y="323" type="line" smooth="yes"/>
      <point x="96" y="340"/>
      <point x="93" y="350"/>
      <point x="76" y="350" type="curve"/>
      <point x="57" y="350"/>
      <point x="46" y="342"/>
      <point x="44" y="323" type="curve" smooth="yes"/>
      <point x="13" y="30" type="line" smooth="yes"/>
      <point x="11" y="15"/>
      <point x="14" y="0"/>
    </contour>
    <contour>
      <point x="223" y="0" type="curve" smooth="yes"/>
      <point x="246" y="0"/>
      <point x="249" y="18"/>
      <point x="250" y="30" type="curve" smooth="yes"/>
      <point x="273" y="234" type="line" smooth="yes"/>
      <point x="281" y="308"/>
      <point x="252" y="354"/>
      <point x="198" y="354" type="curve" smooth="yes"/>
      <point x="143" y="354"/>
      <point x="106" y="305"/>
      <point x="65" y="235" type="curve"/>
      <point x="56" y="114" type="line"/>
      <point x="118" y="251"/>
      <point x="153" y="305"/>
      <point x="195" y="305" type="curve" smooth="yes"/>
      <point x="217" y="305"/>
      <point x="228" y="278"/>
      <point x="223" y="234" type="curve" smooth="yes"/>
      <point x="201" y="30" type="line" smooth="yes"/>
      <point x="199" y="15"/>
      <point x="201" y="0"/>
    </contour>
    <contour>
      <point x="411" y="0" type="curve" smooth="yes"/>
      <point x="435" y="0"/>
      <point x="437" y="18"/>
      <point x="438" y="30" type="curve" smooth="yes"/>
      <point x="461" y="234" type="line" smooth="yes"/>
      <point x="469" y="308"/>
      <point x="440" y="354"/>
      <point x="386" y="354" type="curve" smooth="yes"/>
      <point x="331" y="354"/>
      <point x="294" y="305"/>
      <point x="253" y="235" type="curve"/>
      <point x="244" y="114" type="line"/>
      <point x="306" y="251"/>
      <point x="341" y="305"/>
      <point x="383" y="305" type="curve" smooth="yes"/>
      <point x="405" y="305"/>
      <point x="416" y="278"/>
      <point x="411" y="234" type="curve" smooth="yes"/>
      <point x="389" y="30" type="line" smooth="yes"/>
      <point x="387" y="15"/>
      <point x="389" y="0"/>
    </contour>
  </outline>
</glyph>
<glyph name="n" format="2">
	<advance width="336"/>
	<unicode hex="006E"/>
	<outline>
		<contour>
			<point x="33" y="0" type="curve" smooth="yes"/>
			<point x="59" y="0"/>
			<point x="57" y="18"/>
			<point x="59" y="31" type="curve" smooth="yes"/>
			<point x="93" y="323" type="line" smooth="yes"/>
			<point x="95" y="340"/>
			<point x="92" y="350"/>
			<point x="75" y="350" type="curve" smooth="yes"/>
			<point x="55" y="350"/>
			<point x="45" y="341"/>
			<point x="43" y="323" type="curve" smooth="yes"/>
			<point x="10" y="31" type="line" smooth="yes"/>
			<point x="8" y="15"/>
			<point x="11" y="0"/>
		</contour>
		<contour>
			<point x="227" y="0" type="curve"/>
			<point x="253" y="0"/>
			<point x="252" y="18"/>
			<point x="254" y="31" type="curve" smooth="yes"/>
			<point x="279" y="234" type="line" smooth="yes"/>
			<point x="286" y="291"/>
			<point x="259" y="354"/>
			<point x="201" y="354" type="curve" smooth="yes"/>
			<point x="146" y="354"/>
			<point x="103" y="305"/>
			<point x="65" y="226" type="curve"/>
			<point x="55" y="114" type="line"/>
			<point x="118" y="252"/>
			<point x="156" y="305"/>
			<point x="198" y="305" type="curve" smooth="yes"/>
			<point x="223" y="305"/>
			<point x="232" y="261"/>
			<point x="229" y="234" type="curve" smooth="yes"/>
			<point x="205" y="31" type="line" smooth="yes"/>
			<point x="203" y="15"/>
			<point x="205" y="0"/>
		</contour>
	</outline>
</glyph>
<glyph name="o" format="2">
	<advance width="322"/>
	<unicode hex="006F"/>
	<outline>
		<contour>
			<point x="127" y="-1" type="curve" smooth="yes"/>
			<point x="220" y="-1"/>
			<point x="268" y="91"/>
			<point x="277" y="176" type="curve" smooth="yes"/>
			<point x="286" y="264"/>
			<point x="251" y="350"/>
			<point x="164" y="350" type="curve" smooth="yes"/>
			<point x="90" y="350"/>
			<point x="26" y="291"/>
			<point x="14" y="176" type="curve" smooth="yes"/>
			<point x="5" y="88"/>
			<point x="40" y="-1"/>
		</contour>
		<contour>
			<point x="132" y="45" type="curve" smooth="yes"/>
			<point x="76" y="45"/>
			<point x="57" y="108"/>
			<point x="64" y="173" type="curve" smooth="yes"/>
			<point x="73" y="258"/>
			<point x="114" y="304"/>
			<point x="163" y="304" type="curve" smooth="yes"/>
			<point x="223" y="304"/>
			<point x="232" y="224"/>
			<point x="227" y="178" type="curve" smooth="yes"/>
			<point x="218" y="96"/>
			<point x="173" y="45"/>
		</contour>
	</outline>
</glyph>
<glyph name="p" format="2">
  <advance width="353"/>
  <unicode hex="0070"/>
  <outline>
    <contour>
      <point x="4" y="-300" type="curve" smooth="yes"/>
      <point x="17" y="-300"/>
      <point x="30" y="-291"/>
      <point x="32" y="-273" type="curve" smooth="yes"/>
      <point x="94" y="322" type="line" smooth="yes"/>
      <point x="96" y="341"/>
      <point x="84" y="350"/>
      <point x="71" y="350" type="curve" smooth="yes"/>
      <point x="59" y="350"/>
      <point x="46" y="340"/>
      <point x="44" y="322" type="curve" smooth="yes"/>
      <point x="-18" y="-270" type="line" smooth="yes"/>
      <point x="-20" y="-290"/>
      <point x="-8" y="-300"/>
    </contour>
    <contour>
      <point x="151" y="-1" type="curve" smooth="yes"/>
      <point x="225" y="-1"/>
      <point x="289" y="59"/>
      <point x="301" y="174" type="curve" smooth="yes"/>
      <point x="310" y="262"/>
      <point x="275" y="354"/>
      <point x="188" y="354" type="curve" smooth="yes"/>
      <point x="144" y="354"/>
      <point x="107" y="315"/>
      <point x="84" y="268" type="curve"/>
      <point x="70" y="106" type="line"/>
      <point x="86.0" y="190.0"/>
      <point x="131" y="308.0"/>
      <point x="187" y="308" type="curve" smooth="yes"/>
      <point x="239" y="308"/>
      <point x="258" y="242"/>
      <point x="251" y="177" type="curve" smooth="yes"/>
      <point x="242" y="92"/>
      <point x="201" y="45"/>
      <point x="152" y="45" type="curve" smooth="yes"/>
      <point x="124" y="45"/>
      <point x="83" y="59"/>
      <point x="64" y="88" type="curve"/>
      <point x="59" y="37" type="line"/>
      <point x="84" y="9"/>
      <point x="121" y="-1"/>
    </contour>
  </outline>
</glyph>
<glyph name="q" format="2">
	<advance width="349"/>
	<unicode hex="0071"/>
	<outline>
		<contour>
			<point x="127" y="-4" type="curve" smooth="yes"/>
			<point x="171" y="-4"/>
			<point x="208" y="35"/>
			<point x="231" y="82" type="curve"/>
			<point x="249" y="244" type="line"/>
			<point x="245" y="244" type="line"/>
			<point x="244" y="239"/>
			<point x="240" y="213"/>
			<point x="239" y="208" type="curve" smooth="yes"/>
			<point x="222" y="147"/>
			<point x="176" y="42"/>
			<point x="128" y="42" type="curve" smooth="yes"/>
			<point x="76" y="42"/>
			<point x="57" y="108"/>
			<point x="64" y="173" type="curve" smooth="yes"/>
			<point x="73" y="258"/>
			<point x="114" y="304"/>
			<point x="163" y="304" type="curve" smooth="yes"/>
			<point x="191" y="304"/>
			<point x="232" y="296"/>
			<point x="251" y="267" type="curve"/>
			<point x="256" y="313" type="line"/>
			<point x="231" y="341"/>
			<point x="194" y="350"/>
			<point x="164" y="350" type="curve" smooth="yes"/>
			<point x="90" y="350"/>
			<point x="26" y="291"/>
			<point x="14" y="176" type="curve" smooth="yes"/>
			<point x="5" y="88"/>
			<point x="40" y="-4"/>
		</contour>
		<contour>
			<point x="212" y="-300" type="curve" smooth="yes"/>
			<point x="224" y="-300"/>
			<point x="237" y="-290"/>
			<point x="239" y="-272" type="curve" smooth="yes"/>
			<point x="302" y="320" type="line" smooth="yes"/>
			<point x="304" y="340"/>
			<point x="292" y="350"/>
			<point x="280" y="350" type="curve" smooth="yes"/>
			<point x="267" y="350"/>
			<point x="254" y="341"/>
			<point x="252" y="323" type="curve" smooth="yes"/>
			<point x="189" y="-272" type="line" smooth="yes"/>
			<point x="187" y="-291"/>
			<point x="199" y="-300"/>
		</contour>
		<contour>
			<point x="225" y="-296" type="line"/>
			<point x="318" y="-219" type="line" smooth="yes"/>
			<point x="330" y="-209"/>
			<point x="335" y="-199"/>
			<point x="337" y="-190" type="curve" smooth="yes"/>
			<point x="338" y="-178"/>
			<point x="330" y="-168"/>
			<point x="317" y="-168" type="curve" smooth="yes"/>
			<point x="309" y="-167"/>
			<point x="298" y="-171"/>
			<point x="286" y="-181" type="curve" smooth="yes"/>
			<point x="242" y="-218" type="line"/>
		</contour>
	</outline>
</glyph>
<glyph name="s" format="2">
	<advance width="272"/>
	<unicode hex="0073"/>
	<outline>
		<contour>
			<point x="123" y="-4" type="curve" smooth="yes"/>
			<point x="171" y="-4"/>
			<point x="216" y="22"/>
			<point x="224" y="73" type="curve" smooth="yes"/>
			<point x="231" y="115"/>
			<point x="213" y="146"/>
			<point x="193" y="162" type="curve" smooth="yes"/>
			<point x="168" y="183"/>
			<point x="140" y="201"/>
			<point x="114" y="216" type="curve" smooth="yes"/>
			<point x="76" y="238"/>
			<point x="61" y="256"/>
			<point x="67" y="276" type="curve" smooth="yes"/>
			<point x="73" y="296"/>
			<point x="95" y="302"/>
			<point x="120" y="302" type="curve" smooth="yes"/>
			<point x="155" y="302"/>
			<point x="182" y="288"/>
			<point x="199" y="276" type="curve" smooth="yes"/>
			<point x="215" y="265"/>
			<point x="230" y="262"/>
			<point x="239" y="276" type="curve" smooth="yes"/>
			<point x="248" y="289"/>
			<point x="238" y="310"/>
			<point x="219" y="322" type="curve" smooth="yes"/>
			<point x="186" y="343"/>
			<point x="154" y="351"/>
			<point x="127" y="351" type="curve" smooth="yes"/>
			<point x="72" y="351"/>
			<point x="32" y="334"/>
			<point x="19" y="289" type="curve" smooth="yes"/>
			<point x="6" y="244"/>
			<point x="37" y="204"/>
			<point x="83" y="176" type="curve" smooth="yes"/>
			<point x="111" y="159"/>
			<point x="133" y="147"/>
			<point x="151" y="133" type="curve" smooth="yes"/>
			<point x="165" y="122"/>
			<point x="180" y="102"/>
			<point x="175" y="80" type="curve" smooth="yes"/>
			<point x="169" y="55"/>
			<point x="150" y="46"/>
			<point x="125" y="46" type="curve" smooth="yes"/>
			<point x="88" y="46"/>
			<point x="51" y="69"/>
			<point x="36" y="81" type="curve" smooth="yes"/>
			<point x="22" y="92"/>
			<point x="8" y="89"/>
			<point x="-2" y="74" type="curve" smooth="yes"/>
			<point x="-12" y="59"/>
			<point x="-1" y="47"/>
			<point x="16" y="34" type="curve" smooth="yes"/>
			<point x="36" y="19"/>
			<point x="80" y="-4"/>
		</contour>
	</outline>
</glyph>
<glyph name="t" format="2">
	<advance width="286"/>
	<unicode hex="0074"/>
	<guideline x="326" y="568" angle="0"/>
	<outline>
		<contour>
			<point x="96" y="0" type="curve" smooth="yes"/>
			<point x="109" y="0"/>
			<point x="119" y="7"/>
			<point x="121" y="23" type="curve" smooth="yes"/>
			<point x="177" y="541" type="line" smooth="yes"/>
			<point x="179" y="559"/>
			<point x="166" y="568"/>
			<point x="152" y="568" type="curve" smooth="yes"/>
			<point x="141" y="568"/>
			<point x="129" y="561"/>
			<point x="127" y="547" type="curve" smooth="yes"/>
			<point x="71" y="24" type="line" smooth="yes"/>
			<point x="69" y="8"/>
			<point x="83" y="0"/>
		</contour>
		<contour>
			<point x="25" y="305" type="curve" smooth="yes"/>
			<point x="238" y="305" type="line" smooth="yes"/>
			<point x="258" y="305"/>
			<point x="262" y="316"/>
			<point x="262" y="328" type="curve" smooth="yes"/>
			<point x="262" y="340"/>
			<point x="255" y="350"/>
			<point x="235" y="350" type="curve" smooth="yes"/>
			<point x="22" y="350" type="line" smooth="yes"/>
			<point x="2" y="350"/>
			<point x="-3" y="340"/>
			<point x="-3" y="328" type="curve" smooth="yes"/>
			<point x="-3" y="316"/>
			<point x="5" y="305"/>
		</contour>
	</outline>
</glyph>
<glyph name="v" format="2">
	<advance width="325"/>
	<unicode hex="0076"/>
	<outline>
		<contour>
			<point x="100" y="21" type="line" smooth="yes"/>
			<point x="103" y="5"/>
			<point x="114" y="0"/>
			<point x="126" y="0" type="curve"/>
			<point x="143" y="61" type="line"/>
			<point x="88" y="333" type="line" smooth="yes"/>
			<point x="86" y="343"/>
			<point x="76" y="350"/>
			<point x="66" y="350" type="curve" smooth="yes"/>
			<point x="48" y="350"/>
			<point x="37" y="335"/>
			<point x="42" y="308" type="curve" smooth="yes"/>
		</contour>
		<contour>
			<point x="153" y="19" type="curve" smooth="yes"/>
			<point x="287" y="309" type="line" smooth="yes"/>
			<point x="298" y="334"/>
			<point x="286" y="348"/>
			<point x="268" y="350" type="curve" smooth="yes"/>
			<point x="258" y="351"/>
			<point x="248" y="345"/>
			<point x="244" y="336" type="curve" smooth="yes"/>
			<point x="120" y="67" type="line"/>
			<point x="125" y="0" type="line"/>
			<point x="137" y="0"/>
			<point x="146" y="3"/>
		</contour>
	</outline>
</glyph>
<glyph name="w" format="2">
  <advance width="532"/>
  <unicode hex="0077"/>
  <outline>
    <contour>
      <point x="93" y="21" type="line" smooth="yes"/>
      <point x="96" y="5"/>
      <point x="107" y="0"/>
      <point x="118" y="0" type="curve" smooth="yes"/>
      <point x="130" y="0"/>
      <point x="139" y="3"/>
      <point x="146" y="19" type="curve" smooth="yes"/>
      <point x="259" y="271" type="line"/>
      <point x="248" y="273" type="line"/>
      <point x="295" y="21" type="line" smooth="yes"/>
      <point x="298" y="5"/>
      <point x="309" y="0"/>
      <point x="320" y="0" type="curve" smooth="yes"/>
      <point x="332" y="0"/>
      <point x="341" y="3"/>
      <point x="348" y="19" type="curve" smooth="yes"/>
      <point x="482" y="309" type="line" smooth="yes"/>
      <point x="493" y="334"/>
      <point x="481" y="348"/>
      <point x="463" y="350" type="curve" smooth="yes"/>
      <point x="453" y="351"/>
      <point x="443" y="345"/>
      <point x="439" y="336" type="curve" smooth="yes"/>
      <point x="321" y="73" type="line"/>
      <point x="333" y="71" type="line"/>
      <point x="283" y="333" type="line" smooth="yes"/>
      <point x="281" y="343"/>
      <point x="271" y="350"/>
      <point x="261" y="350" type="curve" smooth="yes"/>
      <point x="251" y="350"/>
      <point x="241" y="345"/>
      <point x="237" y="336" type="curve" smooth="yes"/>
      <point x="119" y="73" type="line"/>
      <point x="131" y="71" type="line"/>
      <point x="81" y="333" type="line" smooth="yes"/>
      <point x="79" y="343"/>
      <point x="69" y="350"/>
      <point x="59" y="350" type="curve" smooth="yes"/>
      <point x="41" y="350"/>
      <point x="30" y="335"/>
      <point x="35" y="308" type="curve" smooth="yes"/>
    </contour>
  </outline>
</glyph>
<glyph name="x" format="2">
  <advance width="315"/>
  <unicode hex="0078"/>
  <outline>
    <contour>
      <point x="23" y="0" type="curve" smooth="yes"/>
      <point x="35" y="0"/>
      <point x="42" y="6"/>
      <point x="51" y="18" type="curve" smooth="yes"/>
      <point x="153" y="153" type="line"/>
      <point x="160" y="158" type="line"/>
      <point x="270" y="304" type="line" smooth="yes"/>
      <point x="286" y="325"/>
      <point x="282" y="350"/>
      <point x="255" y="350" type="curve" smooth="yes"/>
      <point x="248" y="350"/>
      <point x="240" y="347"/>
      <point x="233" y="338" type="curve" smooth="yes"/>
      <point x="132" y="203" type="line"/>
      <point x="125" y="198" type="line"/>
      <point x="14" y="49" type="line" smooth="yes"/>
      <point x="-5" y="24"/>
      <point x="1" y="0"/>
    </contour>
    <contour>
      <point x="222" y="0" type="curve" smooth="yes"/>
      <point x="244" y="0"/>
      <point x="252" y="21"/>
      <point x="237" y="49" type="curve" smooth="yes"/>
      <point x="158" y="195" type="line"/>
      <point x="84" y="333" type="line" smooth="yes"/>
      <point x="78" y="343"/>
      <point x="69" y="350"/>
      <point x="59" y="350" type="curve" smooth="yes"/>
      <point x="43" y="350"/>
      <point x="27" y="334"/>
      <point x="40" y="309" type="curve" smooth="yes"/>
      <point x="123" y="155" type="line"/>
      <point x="196" y="21" type="line" smooth="yes"/>
      <point x="205" y="5"/>
      <point x="212" y="0"/>
    </contour>
  </outline>
</glyph>
<glyph name="y" format="2">
  <advance width="336"/>
  <unicode hex="0079"/>
  <outline>
    <contour>
      <point x="99" y="-1" type="curve" smooth="yes"/>
      <point x="154" y="-1"/>
      <point x="194" y="46"/>
      <point x="236" y="117" type="curve"/>
      <point x="245" y="236" type="line"/>
      <point x="183" y="99"/>
      <point x="144" y="48"/>
      <point x="102" y="48" type="curve" smooth="yes"/>
      <point x="77" y="48"/>
      <point x="67" y="80"/>
      <point x="71" y="116" type="curve" smooth="yes"/>
      <point x="93" y="321" type="line" smooth="yes"/>
      <point x="95" y="335"/>
      <point x="91" y="351"/>
      <point x="71" y="350" type="curve" smooth="yes"/>
      <point x="51" y="349"/>
      <point x="45" y="332"/>
      <point x="44" y="321" type="curve" smooth="yes"/>
      <point x="21" y="116" type="line" smooth="yes"/>
      <point x="14" y="51"/>
      <point x="41" y="-1"/>
    </contour>
    <contour>
      <point x="243" y="-123" type="curve" smooth="yes"/>
      <point x="290" y="320" type="line" smooth="yes"/>
      <point x="292" y="340"/>
      <point x="280" y="350"/>
      <point x="268" y="350" type="curve" smooth="yes"/>
      <point x="255" y="350"/>
      <point x="242" y="341"/>
      <point x="240" y="323" type="curve" smooth="yes"/>
      <point x="193" y="-123" type="line" smooth="yes"/>
      <point x="184" y="-204"/>
      <point x="144" y="-254"/>
      <point x="88" y="-254" type="curve" smooth="yes"/>
      <point x="60" y="-254"/>
      <point x="32" y="-243"/>
      <point x="15" y="-226" type="curve" smooth="yes"/>
      <point x="7" y="-218"/>
      <point x="-4" y="-216"/>
      <point x="-13" y="-222" type="curve" smooth="yes"/>
      <point x="-28" y="-232"/>
      <point x="-29" y="-246"/>
      <point x="-16" y="-259" type="curve" smooth="yes"/>
      <point x="8" y="-284"/>
      <point x="48" y="-300"/>
      <point x="87" y="-300" type="curve" smooth="yes"/>
      <point x="172" y="-300"/>
      <point x="231" y="-232"/>
    </contour>
  </outline>
</glyph>
<glyph name="z" format="2">
  <advance width="327"/>
  <unicode hex="007A"/>
  <outline>
    <contour>
      <point x="28" y="0" type="curve"/>
      <point x="43" y="11" type="line"/>
      <point x="273" y="309" type="line" smooth="yes"/>
      <point x="288" y="329"/>
      <point x="274" y="350"/>
      <point x="254" y="350" type="curve"/>
      <point x="237" y="341" type="line"/>
      <point x="9" y="44" type="line" smooth="yes"/>
      <point x="-5" y="26"/>
      <point x="9" y="0"/>
    </contour>
    <contour>
      <point x="225" y="0" type="line" smooth="yes"/>
      <point x="245" y="0"/>
      <point x="249" y="13"/>
      <point x="249" y="25" type="curve" smooth="yes"/>
      <point x="249" y="37"/>
      <point x="242" y="50"/>
      <point x="222" y="50" type="curve" smooth="yes"/>
      <point x="63" y="50" type="line"/>
      <point x="29" y="0" type="line"/>
    </contour>
    <contour>
      <point x="62" y="300" type="curve" smooth="yes"/>
      <point x="219" y="300" type="line"/>
      <point x="254" y="350" type="line"/>
      <point x="59" y="350" type="line" smooth="yes"/>
      <point x="39" y="350"/>
      <point x="34" y="337"/>
      <point x="34" y="325" type="curve" smooth="yes"/>
      <point x="34" y="313"/>
      <point x="42" y="300"/>
    </contour>
  </outline>
</glyph>
<glyph name="braceleft" format="2">
  <advance width="370"/>
  <unicode hex="007B"/>
  <outline>
    <contour>
      <point x="165" y="-294" type="curve" smooth="yes"/>
      <point x="181" y="-306"/>
      <point x="199" y="-308"/>
      <point x="209" y="-298" type="curve" smooth="yes"/>
      <point x="220" y="-289"/>
      <point x="214" y="-268"/>
      <point x="199" y="-258" type="curve" smooth="yes"/>
      <point x="159" y="-231"/>
      <point x="124" y="-212"/>
      <point x="116" y="-158" type="curve" smooth="yes"/>
      <point x="107" y="-95"/>
      <point x="162" y="9"/>
      <point x="165" y="63" type="curve" smooth="yes"/>
      <point x="168" y="107"/>
      <point x="155" y="144"/>
      <point x="113" y="197" type="curve"/>
      <point x="167" y="236"/>
      <point x="186" y="267"/>
      <point x="193" y="311" type="curve" smooth="yes"/>
      <point x="200" y="364"/>
      <point x="163" y="479"/>
      <point x="192" y="534" type="curve" smooth="yes"/>
      <point x="211" y="570"/>
      <point x="263" y="583"/>
      <point x="308" y="595" type="curve" smooth="yes"/>
      <point x="324" y="599"/>
      <point x="339" y="615"/>
      <point x="335" y="629" type="curve" smooth="yes"/>
      <point x="332" y="644"/>
      <point x="306" y="652"/>
      <point x="284" y="645" type="curve" smooth="yes"/>
      <point x="245" y="634"/>
      <point x="170" y="600"/>
      <point x="146" y="550" type="curve" smooth="yes"/>
      <point x="117" y="492"/>
      <point x="149" y="366"/>
      <point x="140" y="317" type="curve" smooth="yes"/>
      <point x="135" y="288"/>
      <point x="116" y="264"/>
      <point x="84" y="240" type="curve" smooth="yes"/>
      <point x="67" y="228"/>
      <point x="53" y="221"/>
      <point x="52" y="205" type="curve" smooth="yes"/>
      <point x="52" y="188"/>
      <point x="65" y="178"/>
      <point x="77" y="162" type="curve" smooth="yes"/>
      <point x="102" y="129"/>
      <point x="114" y="100"/>
      <point x="112" y="71" type="curve" smooth="yes"/>
      <point x="108" y="14"/>
      <point x="55" y="-94"/>
      <point x="65" y="-160" type="curve" smooth="yes"/>
      <point x="74" y="-217"/>
      <point x="129" y="-267"/>
    </contour>
  </outline>
</glyph>
<glyph name="bar" format="2">
  <advance width="182"/>
  <unicode hex="007C"/>
  <outline>
    <contour>
      <point x="27" y="-300" type="curve" smooth="yes"/>
      <point x="49" y="-300"/>
      <point x="51" y="-285"/>
      <point x="52" y="-275" type="curve" smooth="yes"/>
      <point x="152" y="668" type="line" smooth="yes"/>
      <point x="155" y="690"/>
      <point x="143" y="700"/>
      <point x="130" y="700" type="curve" smooth="yes"/>
      <point x="118" y="700"/>
      <point x="104" y="690"/>
      <point x="102" y="672" type="curve" smooth="yes"/>
      <point x="1" y="-273" type="line" smooth="yes"/>
      <point x="-1" y="-288"/>
      <point x="9" y="-300"/>
    </contour>
  </outline>
</glyph>
<glyph name="braceright" format="2">
	<advance width="344"/>
	<unicode hex="007D"/>
	<outline>
		<contour>
			<point x="252" y="171" type="curve" smooth="yes"/>
			<point x="253" y="188"/>
			<point x="240" y="198"/>
			<point x="227" y="214" type="curve" smooth="yes"/>
			<point x="202" y="247"/>
			<point x="191" y="276"/>
			<point x="192" y="305" type="curve" smooth="yes"/>
			<point x="197" y="362"/>
			<point x="248" y="439"/>
			<point x="238" y="505" type="curve" smooth="yes"/>
			<point x="229" y="562"/>
			<point x="175" y="612"/>
			<point x="138" y="639" type="curve" smooth="yes"/>
			<point x="122" y="651"/>
			<point x="104" y="653"/>
			<point x="94" y="643" type="curve" smooth="yes"/>
			<point x="84" y="634"/>
			<point x="90" y="613"/>
			<point x="104" y="603" type="curve" smooth="yes"/>
			<point x="144" y="576"/>
			<point x="180" y="557"/>
			<point x="187" y="503" type="curve" smooth="yes"/>
			<point x="196" y="440"/>
			<point x="143" y="367"/>
			<point x="139" y="313" type="curve" smooth="yes"/>
			<point x="136" y="269"/>
			<point x="143" y="232"/>
			<point x="184" y="179" type="curve"/>
			<point x="131" y="140"/>
			<point x="119" y="109"/>
			<point x="112" y="65" type="curve" smooth="yes"/>
			<point x="104" y="13"/>
			<point x="140" y="-134"/>
			<point x="111" y="-188" type="curve" smooth="yes"/>
			<point x="92" y="-224"/>
			<point x="40" y="-239"/>
			<point x="-4" y="-250" type="curve" smooth="yes"/>
			<point x="-21" y="-255"/>
			<point x="-35" y="-270"/>
			<point x="-32" y="-284" type="curve" smooth="yes"/>
			<point x="-29" y="-299"/>
			<point x="-3" y="-307"/>
			<point x="19" y="-300" type="curve" smooth="yes"/>
			<point x="58" y="-288"/>
			<point x="133" y="-255"/>
			<point x="158" y="-205" type="curve" smooth="yes"/>
			<point x="187" y="-147"/>
			<point x="155" y="10"/>
			<point x="164" y="59" type="curve" smooth="yes"/>
			<point x="170" y="88"/>
			<point x="188" y="112"/>
			<point x="220" y="136" type="curve" smooth="yes"/>
			<point x="237" y="148"/>
			<point x="252" y="155"/>
		</contour>
	</outline>
</glyph>
<glyph name="asciitilde" format="2">
	<advance width="370"/>
	<unicode hex="007E"/>
	<outline>
		<contour>
			<point x="213" y="158" type="curve" smooth="yes"/>
			<point x="245" y="158"/>
			<point x="264" y="168"/>
			<point x="285" y="177" type="curve" smooth="yes"/>
			<point x="302" y="185"/>
			<point x="310" y="191"/>
			<point x="309" y="202" type="curve" smooth="yes"/>
			<point x="308" y="213"/>
			<point x="295" y="233"/>
			<point x="278" y="225" type="curve" smooth="yes"/>
			<point x="260" y="216"/>
			<point x="248" y="203"/>
			<point x="218" y="203" type="curve" smooth="yes"/>
			<point x="190" y="203"/>
			<point x="144" y="241"/>
			<point x="113" y="241" type="curve" smooth="yes"/>
			<point x="87" y="241"/>
			<point x="71" y="232"/>
			<point x="53" y="225" type="curve" smooth="yes"/>
			<point x="36" y="218"/>
			<point x="27" y="213"/>
			<point x="28" y="202" type="curve" smooth="yes"/>
			<point x="29" y="190"/>
			<point x="40" y="169"/>
			<point x="58" y="177" type="curve" smooth="yes"/>
			<point x="72" y="184"/>
			<point x="85" y="196"/>
			<point x="108" y="196" type="curve" smooth="yes"/>
			<point x="139" y="196"/>
			<point x="185" y="158"/>
		</contour>
	</outline>
</glyph>
<glyph name="exclamdown" format="2">
  <advance width="227"/>
  <unicode hex="00A1"/>
  <outline>
    <contour>
      <point x="76" y="-1" type="curve" smooth="yes"/>
      <point x="89" y="-1"/>
      <point x="104" y="6"/>
      <point x="106" y="20" type="curve" smooth="yes"/>
      <point x="152" y="447" type="line" smooth="yes"/>
      <point x="154" y="464"/>
      <point x="141" y="473"/>
      <point x="129" y="474" type="curve" smooth="yes"/>
      <point x="117" y="475"/>
      <point x="103" y="466"/>
      <point x="101" y="447" type="curve" smooth="yes"/>
      <point x="55" y="20" type="line" smooth="yes"/>
      <point x="53" y="6"/>
      <point x="64" y="-1"/>
    </contour>
    <contour>
      <point x="144" y="570" type="curve" smooth="yes"/>
      <point x="167" y="570"/>
      <point x="184" y="587"/>
      <point x="184" y="609" type="curve" smooth="yes"/>
      <point x="184" y="632"/>
      <point x="167" y="650"/>
      <point x="144" y="650" type="curve" smooth="yes"/>
      <point x="121" y="650"/>
      <point x="104" y="632"/>
      <point x="104" y="609" type="curve" smooth="yes"/>
      <point x="104" y="587"/>
      <point x="121" y="570"/>
    </contour>
  </outline>
</glyph>
<glyph name="brokenbar" format="2">
	<advance width="182"/>
	<unicode hex="00A6"/>
	<outline>
		<contour>
			<point x="95" y="135" type="line" smooth="yes"/>
			<point x="96" y="152"/>
			<point x="85" y="162"/>
			<point x="73" y="162" type="curve" smooth="yes"/>
			<point x="60" y="162"/>
			<point x="45" y="152"/>
			<point x="44" y="135" type="curve" smooth="yes"/>
			<point x="0" y="-273" type="line" smooth="yes"/>
			<point x="-2" y="-288"/>
			<point x="8" y="-300"/>
			<point x="26" y="-300" type="curve" smooth="yes"/>
			<point x="48" y="-300"/>
			<point x="50" y="-285"/>
			<point x="51" y="-275" type="curve" smooth="yes"/>
		</contour>
		<contour>
			<point x="151" y="668" type="line" smooth="yes"/>
			<point x="154" y="690"/>
			<point x="142" y="700"/>
			<point x="129" y="700" type="curve" smooth="yes"/>
			<point x="117" y="700"/>
			<point x="103" y="690"/>
			<point x="101" y="672" type="curve" smooth="yes"/>
			<point x="57" y="266" type="line" smooth="yes"/>
			<point x="56" y="249"/>
			<point x="67" y="238"/>
			<point x="80" y="239" type="curve" smooth="yes"/>
			<point x="93" y="239"/>
			<point x="107" y="249"/>
			<point x="108" y="266" type="curve" smooth="yes"/>
		</contour>
	</outline>
</glyph>
<glyph name="degree" format="2">
	<advance width="298"/>
	<unicode hex="00B0"/>
	<outline>
		<contour>
			<point x="163" y="404" type="curve" smooth="yes"/>
			<point x="229" y="404"/>
			<point x="263" y="469"/>
			<point x="270" y="530" type="curve" smooth="yes"/>
			<point x="276" y="593"/>
			<point x="251" y="654"/>
			<point x="189" y="654" type="curve" smooth="yes"/>
			<point x="137" y="654"/>
			<point x="91" y="612"/>
			<point x="82" y="530" type="curve" smooth="yes"/>
			<point x="76" y="467"/>
			<point x="101" y="404"/>
		</contour>
		<contour>
			<point x="170" y="450" type="curve" smooth="yes"/>
			<point x="135" y="450"/>
			<point x="124" y="487"/>
			<point x="128" y="528" type="curve" smooth="yes"/>
			<point x="134" y="583"/>
			<point x="156" y="608"/>
			<point x="186" y="608" type="curve" smooth="yes"/>
			<point x="223" y="608"/>
			<point x="227" y="559"/>
			<point x="224" y="531" type="curve" smooth="yes"/>
			<point x="218" y="478"/>
			<point x="194" y="450"/>
		</contour>
	</outline>
</glyph>
<glyph name="plusminus" format="2">
  <advance width="426"/>
  <unicode hex="00B1"/>
  <outline>
    <contour>
      <point x="199" y="186" type="curve" smooth="yes"/>
      <point x="209" y="186"/>
      <point x="221" y="192"/>
      <point x="223" y="208" type="curve" smooth="yes"/>
      <point x="236" y="340" type="line" smooth="yes"/>
      <point x="238" y="358"/>
      <point x="229" y="371"/>
      <point x="216" y="371" type="curve"/>
      <point x="207" y="371"/>
      <point x="193" y="365"/>
      <point x="192" y="350" type="curve" smooth="yes"/>
      <point x="180" y="218" type="line" smooth="yes"/>
      <point x="178" y="199"/>
      <point x="187" y="186"/>
    </contour>
    <contour>
      <point x="94" y="257" type="curve" smooth="yes"/>
      <point x="321" y="257" type="line" smooth="yes"/>
      <point x="339" y="257"/>
      <point x="348" y="269"/>
      <point x="348" y="280" type="curve" smooth="yes"/>
      <point x="348" y="291"/>
      <point x="339" y="302"/>
      <point x="321" y="302" type="curve" smooth="yes"/>
      <point x="94" y="302" type="line" smooth="yes"/>
      <point x="76" y="302"/>
      <point x="67" y="291"/>
      <point x="67" y="280" type="curve" smooth="yes"/>
      <point x="67" y="268"/>
      <point x="76" y="257"/>
    </contour>
    <contour>
      <point x="83" y="129" type="curve" smooth="yes"/>
      <point x="310" y="129" type="line" smooth="yes"/>
      <point x="328" y="129"/>
      <point x="337" y="141"/>
      <point x="337" y="152" type="curve" smooth="yes"/>
      <point x="337" y="163"/>
      <point x="328" y="174"/>
      <point x="310" y="174" type="curve" smooth="yes"/>
      <point x="83" y="174" type="line" smooth="yes"/>
      <point x="65" y="174"/>
      <point x="56" y="163"/>
      <point x="56" y="152" type="curve" smooth="yes"/>
      <point x="56" y="140"/>
      <point x="65" y="129"/>
    </contour>
  </outline>
</glyph>
<glyph name="periodcentered" format="2">
	<advance width="164"/>
	<unicode hex="00B7"/>
	<outline>
		<contour>
			<point x="62" y="138" type="curve" smooth="yes"/>
			<point x="82" y="138"/>
			<point x="101" y="157"/>
			<point x="101" y="178" type="curve" smooth="yes"/>
			<point x="101" y="198"/>
			<point x="82" y="214"/>
			<point x="62" y="214" type="curve" smooth="yes"/>
			<point x="41" y="214"/>
			<point x="26" y="197"/>
			<point x="26" y="178" type="curve" smooth="yes"/>
			<point x="26" y="158"/>
			<point x="41" y="138"/>
		</contour>
	</outline>
</glyph>
<glyph name="questiondown" format="2">
  <advance width="467"/>
  <unicode hex="00BF"/>
  <outline>
    <contour>
      <point x="210" y="-1" type="curve" smooth="yes"/>
      <point x="315" y="-1"/>
      <point x="375" y="65"/>
      <point x="384" y="160" type="curve" smooth="yes"/>
      <point x="386" y="182"/>
      <point x="374" y="193"/>
      <point x="363" y="193" type="curve" smooth="yes"/>
      <point x="349" y="193"/>
      <point x="337" y="187"/>
      <point x="335" y="165" type="curve" smooth="yes"/>
      <point x="329" y="108"/>
      <point x="295" y="45"/>
      <point x="210" y="45" type="curve" smooth="yes"/>
      <point x="141" y="45"/>
      <point x="98" y="87"/>
      <point x="98" y="155" type="curve" smooth="yes"/>
      <point x="98" y="268"/>
      <point x="175" y="327"/>
      <point x="277" y="327" type="curve"/>
      <point x="288" y="327"/>
      <point x="299" y="336"/>
      <point x="300" y="347" type="curve" smooth="yes"/>
      <point x="311" y="448" type="line" smooth="yes"/>
      <point x="313" y="462"/>
      <point x="301" y="475"/>
      <point x="289" y="475" type="curve" smooth="yes"/>
      <point x="276" y="475"/>
      <point x="263" y="469"/>
      <point x="260" y="447" type="curve"/>
      <point x="252" y="372" type="line"/>
      <point x="138" y="364"/>
      <point x="48" y="294"/>
      <point x="48" y="154" type="curve" smooth="yes"/>
      <point x="48" y="57"/>
      <point x="110" y="-2"/>
    </contour>
    <contour>
      <point x="301" y="570" type="curve" smooth="yes"/>
      <point x="324" y="570"/>
      <point x="341" y="587"/>
      <point x="341" y="609" type="curve" smooth="yes"/>
      <point x="341" y="632"/>
      <point x="324" y="650"/>
      <point x="301" y="650" type="curve" smooth="yes"/>
      <point x="278" y="650"/>
      <point x="261" y="632"/>
      <point x="261" y="609" type="curve" smooth="yes"/>
      <point x="261" y="587"/>
      <point x="278" y="570"/>
    </contour>
  </outline>
</glyph>
<glyph name="multiply" format="2">
	<advance width="370"/>
	<unicode hex="00D7"/>
	<outline>
		<contour>
			<point x="312" y="290" type="line" smooth="yes"/>
			<point x="325" y="302"/>
			<point x="322" y="317"/>
			<point x="312" y="325" type="curve" smooth="yes"/>
			<point x="303" y="334"/>
			<point x="286" y="337"/>
			<point x="273" y="325" type="curve" smooth="yes"/>
			<point x="23" y="101" type="line" smooth="yes"/>
			<point x="12" y="91"/>
			<point x="15" y="76"/>
			<point x="23" y="67" type="curve" smooth="yes"/>
			<point x="33" y="58"/>
			<point x="48" y="54"/>
			<point x="63" y="67" type="curve" smooth="yes"/>
		</contour>
		<contour>
			<point x="86" y="321" type="line" smooth="yes"/>
			<point x="72" y="336"/>
			<point x="57" y="335"/>
			<point x="48" y="327" type="curve" smooth="yes"/>
			<point x="40" y="318"/>
			<point x="37" y="303"/>
			<point x="48" y="291" type="curve" smooth="yes"/>
			<point x="252" y="69" type="line" smooth="yes"/>
			<point x="264" y="56"/>
			<point x="279" y="58"/>
			<point x="287" y="66" type="curve" smooth="yes"/>
			<point x="297" y="74"/>
			<point x="300" y="89"/>
			<point x="288" y="102" type="curve" smooth="yes"/>
		</contour>
	</outline>
</glyph>
<glyph name="divide" format="2">
  <advance width="426"/>
  <unicode hex="00F7"/>
  <outline>
    <contour>
      <point x="197" y="87" type="curve" smooth="yes"/>
      <point x="215" y="87"/>
      <point x="231" y="103"/>
      <point x="231" y="120" type="curve" smooth="yes"/>
      <point x="231" y="138"/>
      <point x="214" y="152"/>
      <point x="197" y="152" type="curve" smooth="yes"/>
      <point x="178" y="152"/>
      <point x="166" y="136"/>
      <point x="166" y="120" type="curve" smooth="yes"/>
      <point x="166" y="103"/>
      <point x="179" y="87"/>
    </contour>
    <contour>
      <point x="97" y="205" type="curve" smooth="yes"/>
      <point x="324" y="205" type="line" smooth="yes"/>
      <point x="342" y="205"/>
      <point x="351" y="217"/>
      <point x="351" y="228" type="curve" smooth="yes"/>
      <point x="351" y="239"/>
      <point x="342" y="250"/>
      <point x="324" y="250" type="curve" smooth="yes"/>
      <point x="97" y="250" type="line" smooth="yes"/>
      <point x="79" y="250"/>
      <point x="70" y="239"/>
      <point x="70" y="228" type="curve" smooth="yes"/>
      <point x="70" y="217"/>
      <point x="79" y="205"/>
    </contour>
    <contour>
      <point x="222" y="303" type="curve" smooth="yes"/>
      <point x="239" y="303"/>
      <point x="255" y="319"/>
      <point x="255" y="336" type="curve" smooth="yes"/>
      <point x="255" y="353"/>
      <point x="239" y="368"/>
      <point x="222" y="368" type="curve" smooth="yes"/>
      <point x="204" y="368"/>
      <point x="190" y="352"/>
      <point x="190" y="336" type="curve" smooth="yes"/>
      <point x="190" y="320"/>
      <point x="204" y="303"/>
    </contour>
  </outline>
</glyph>
<glyph name="endash" format="2">
	<advance width="370"/>
	<unicode hex="2013"/>
	<outline>
		<contour>
			<point x="284" y="175" type="line" smooth="yes"/>
			<point x="302" y="175"/>
			<point x="310" y="187"/>
			<point x="309" y="199" type="curve" smooth="yes"/>
			<point x="308" y="210"/>
			<point x="299" y="220"/>
			<point x="281" y="220" type="curve" smooth="yes"/>
			<point x="54" y="220" type="line" smooth="yes"/>
			<point x="36" y="220"/>
			<point x="27" y="210"/>
			<point x="28" y="199" type="curve" smooth="yes"/>
			<point x="29" y="187"/>
			<point x="39" y="175"/>
			<point x="57" y="175" type="curve" smooth="yes"/>
		</contour>
	</outline>
</glyph>
<glyph name="bullet" format="2">
	<advance width="240"/>
	<unicode hex="2022"/>
	<outline>
		<contour>
			<point x="119" y="278" type="curve" smooth="yes"/>
			<point x="159" y="278"/>
			<point x="195" y="314"/>
			<point x="195" y="355" type="curve" smooth="yes"/>
			<point x="195" y="396"/>
			<point x="160" y="430"/>
			<point x="119" y="430" type="curve" smooth="yes"/>
			<point x="78" y="430"/>
			<point x="45" y="395"/>
			<point x="45" y="355" type="curve" smooth="yes"/>
			<point x="45" y="316"/>
			<point x="77" y="278"/>
		</contour>
	</outline>
</glyph>
<glyph name="ellipsis" format="2">
	<advance width="384"/>
	<unicode hex="2026"/>
	<outline>
		<contour>
			<point x="266" y="-30" type="curve" smooth="yes"/>
			<point x="286" y="-30"/>
			<point x="303" y="-12"/>
			<point x="303" y="9" type="curve" smooth="yes"/>
			<point x="303" y="29"/>
			<point x="286" y="46"/>
			<point x="266" y="46" type="curve" smooth="yes"/>
			<point x="245" y="46"/>
			<point x="228" y="29"/>
			<point x="228" y="9" type="curve" smooth="yes"/>
			<point x="228" y="-11"/>
			<point x="245" y="-30"/>
		</contour>
		<contour>
			<point x="45" y="-30" type="curve" smooth="yes"/>
			<point x="65" y="-30"/>
			<point x="83" y="-12"/>
			<point x="83" y="9" type="curve" smooth="yes"/>
			<point x="83" y="29"/>
			<point x="65" y="46"/>
			<point x="45" y="46" type="curve" smooth="yes"/>
			<point x="24" y="46"/>
			<point x="8" y="29"/>
			<point x="8" y="9" type="curve" smooth="yes"/>
			<point x="8" y="-11"/>
			<point x="24" y="-30"/>
		</contour>
		<contour>
			<point x="155" y="-30" type="curve" smooth="yes"/>
			<point x="175" y="-30"/>
			<point x="193" y="-12"/>
			<point x="193" y="9" type="curve" smooth="yes"/>
			<point x="193" y="29"/>
			<point x="175" y="46"/>
			<point x="155" y="46" type="curve" smooth="yes"/>
			<point x="134" y="46"/>
			<point x="118" y="29"/>
			<point x="118" y="9" type="curve" smooth="yes"/>
			<point x="118" y="-11"/>
			<point x="134" y="-30"/>
		</contour>
	</outline>
</glyph>
<glyph name="approxequal" format="2">
	<advance width="370"/>
	<unicode hex="2248"/>
	<outline>
		<contour>
			<point x="220" y="227" type="curve" smooth="yes"/>
			<point x="252" y="227"/>
			<point x="271" y="237"/>
			<point x="292" y="246" type="curve" smooth="yes"/>
			<point x="309" y="254"/>
			<point x="317" y="260"/>
			<point x="316" y="271" type="curve" smooth="yes"/>
			<point x="315" y="282"/>
			<point x="302" y="302"/>
			<point x="285" y="294" type="curve" smooth="yes"/>
			<point x="267" y="285"/>
			<point x="255" y="272"/>
			<point x="225" y="272" type="curve" smooth="yes"/>
			<point x="197" y="272"/>
			<point x="151" y="310"/>
			<point x="120" y="310" type="curve" smooth="yes"/>
			<point x="94" y="310"/>
			<point x="78" y="301"/>
			<point x="60" y="294" type="curve" smooth="yes"/>
			<point x="43" y="287"/>
			<point x="34" y="282"/>
			<point x="35" y="271" type="curve" smooth="yes"/>
			<point x="36" y="259"/>
			<point x="47" y="238"/>
			<point x="65" y="246" type="curve" smooth="yes"/>
			<point x="79" y="253"/>
			<point x="92" y="265"/>
			<point x="115" y="265" type="curve" smooth="yes"/>
			<point x="146" y="265"/>
			<point x="192" y="227"/>
		</contour>
		<contour>
			<point x="205" y="76" type="curve" smooth="yes"/>
			<point x="237" y="76"/>
			<point x="256" y="86"/>
			<point x="276" y="95" type="curve" smooth="yes"/>
			<point x="294" y="103"/>
			<point x="301" y="109"/>
			<point x="301" y="120" type="curve" smooth="yes"/>
			<point x="300" y="131"/>
			<point x="286" y="151"/>
			<point x="270" y="143" type="curve" smooth="yes"/>
			<point x="252" y="134"/>
			<point x="240" y="121"/>
			<point x="210" y="121" type="curve" smooth="yes"/>
			<point x="182" y="121"/>
			<point x="136" y="159"/>
			<point x="105" y="159" type="curve" smooth="yes"/>
			<point x="79" y="159"/>
			<point x="63" y="150"/>
			<point x="45" y="143" type="curve" smooth="yes"/>
			<point x="27" y="136"/>
			<point x="19" y="131"/>
			<point x="20" y="120" type="curve" smooth="yes"/>
			<point x="20" y="108"/>
			<point x="32" y="87"/>
			<point x="49" y="95" type="curve" smooth="yes"/>
			<point x="64" y="102"/>
			<point x="77" y="114"/>
			<point x="100" y="114" type="curve" smooth="yes"/>
			<point x="131" y="114"/>
			<point x="177" y="76"/>
		</contour>
	</outline>
</glyph>
<glyph name="notequal" format="2">
  <advance width="426"/>
  <unicode hex="2260"/>
  <outline>
    <contour>
      <point x="86" y="129" type="curve" smooth="yes"/>
      <point x="313" y="129" type="line" smooth="yes"/>
      <point x="331" y="129"/>
      <point x="340" y="141"/>
      <point x="340" y="152" type="curve" smooth="yes"/>
      <point x="340" y="163"/>
      <point x="331" y="174"/>
      <point x="313" y="174" type="curve" smooth="yes"/>
      <point x="86" y="174" type="line" smooth="yes"/>
      <point x="68" y="174"/>
      <point x="59" y="162"/>
      <point x="59" y="151" type="curve" smooth="yes"/>
      <point x="59" y="140"/>
      <point x="68" y="129"/>
    </contour>
    <contour>
      <point x="103" y="280" type="curve" smooth="yes"/>
      <point x="330" y="280" type="line" smooth="yes"/>
      <point x="348" y="280"/>
      <point x="357" y="292"/>
      <point x="357" y="303" type="curve" smooth="yes"/>
      <point x="357" y="314"/>
      <point x="348" y="325"/>
      <point x="330" y="325" type="curve" smooth="yes"/>
      <point x="103" y="325" type="line" smooth="yes"/>
      <point x="85" y="325"/>
      <point x="76" y="313"/>
      <point x="76" y="302" type="curve" smooth="yes"/>
      <point x="76" y="291"/>
      <point x="85" y="280"/>
    </contour>
    <contour>
      <point x="153" y="89" type="curve" smooth="yes"/>
      <point x="289" y="338" type="line" smooth="yes"/>
      <point x="303" y="362"/>
      <point x="289" y="377"/>
      <point x="275" y="377" type="curve" smooth="yes"/>
      <point x="265" y="377"/>
      <point x="258" y="373"/>
      <point x="251" y="362" type="curve" smooth="yes"/>
      <point x="112" y="110" type="line" smooth="yes"/>
      <point x="103" y="92"/>
      <point x="110" y="80"/>
      <point x="121" y="75" type="curve" smooth="yes"/>
      <point x="130" y="71"/>
      <point x="144" y="73"/>
    </contour>
  </outline>
</glyph>
<glyph name="lessequal" format="2">
  <advance width="426"/>
  <unicode hex="2264"/>
  <outline>
    <contour>
      <point x="83" y="129" type="curve" smooth="yes"/>
      <point x="310" y="129" type="line" smooth="yes"/>
      <point x="328" y="129"/>
      <point x="337" y="140"/>
      <point x="337" y="152" type="curve" smooth="yes"/>
      <point x="337" y="163"/>
      <point x="328" y="174"/>
      <point x="310" y="174" type="curve" smooth="yes"/>
      <point x="83" y="174" type="line" smooth="yes"/>
      <point x="65" y="174"/>
      <point x="56" y="162"/>
      <point x="56" y="151" type="curve" smooth="yes"/>
      <point x="56" y="140"/>
      <point x="65" y="129"/>
    </contour>
    <contour>
      <point x="89" y="234" type="curve" smooth="yes"/>
      <point x="316" y="234" type="line" smooth="yes"/>
      <point x="334" y="234"/>
      <point x="343" y="245"/>
      <point x="343" y="257" type="curve" smooth="yes"/>
      <point x="343" y="268"/>
      <point x="334" y="279"/>
      <point x="316" y="279" type="curve" smooth="yes"/>
      <point x="149" y="279" type="line"/>
      <point x="152" y="265" type="line"/>
      <point x="328" y="356" type="line" smooth="yes"/>
      <point x="344" y="364"/>
      <point x="346" y="380"/>
      <point x="338" y="391" type="curve" smooth="yes"/>
      <point x="330" y="401"/>
      <point x="318" y="401"/>
      <point x="301" y="392" type="curve" smooth="yes"/>
      <point x="75" y="276" type="line" smooth="yes"/>
      <point x="66" y="271"/>
      <point x="62" y="264"/>
      <point x="62" y="256" type="curve" smooth="yes"/>
      <point x="62" y="245"/>
      <point x="71" y="234"/>
    </contour>
  </outline>
</glyph>
<glyph name="greaterequal" format="2">
	<advance width="349"/>
	<unicode hex="2265"/>
	<outline>
		<contour>
			<point x="252" y="207" type="line" smooth="yes"/>
			<point x="267" y="198"/>
			<point x="278" y="202"/>
			<point x="284" y="212" type="curve" smooth="yes"/>
			<point x="291" y="223"/>
			<point x="291" y="233"/>
			<point x="275" y="243" type="curve" smooth="yes"/>
			<point x="84" y="360" type="line" smooth="yes"/>
			<point x="67" y="370"/>
			<point x="54" y="369"/>
			<point x="47" y="359" type="curve" smooth="yes"/>
			<point x="40" y="348"/>
			<point x="44" y="334"/>
			<point x="59" y="324" type="curve" smooth="yes"/>
		</contour>
		<contour>
			<point x="254" y="97" type="line" smooth="yes"/>
			<point x="272" y="97"/>
			<point x="280" y="108"/>
			<point x="280" y="120" type="curve" smooth="yes"/>
			<point x="279" y="131"/>
			<point x="269" y="142"/>
			<point x="251" y="142" type="curve" smooth="yes"/>
			<point x="47" y="142" type="line" smooth="yes"/>
			<point x="29" y="142"/>
			<point x="21" y="131"/>
			<point x="22" y="120" type="curve" smooth="yes"/>
			<point x="22" y="109"/>
			<point x="32" y="97"/>
			<point x="50" y="97" type="curve" smooth="yes"/>
		</contour>
		<contour>
			<point x="271" y="202" type="line"/>
			<point x="267" y="248" type="line"/>
			<point x="61" y="248" type="line" smooth="yes"/>
			<point x="39" y="248"/>
			<point x="31" y="239"/>
			<point x="30" y="227" type="curve" smooth="yes"/>
			<point x="30" y="216"/>
			<point x="36" y="202"/>
			<point x="58" y="202" type="curve" smooth="yes"/>
		</contour>
	</outline>
</glyph>
<glyph name=".notdef" format="2">
  <advance width="576"/>
  <outline>
    <contour>
      <point x="455" y="0" type="line" smooth="yes"/>
      <point x="466" y="0"/>
      <point x="476" y="12"/>
      <point x="478" y="27" type="curve" smooth="yes"/>
      <point x="547" y="673" type="line" smooth="yes"/>
      <point x="549" y="689"/>
      <point x="541" y="700"/>
      <point x="527" y="700" type="curve" smooth="yes"/>
      <point x="131" y="700" type="line" smooth="yes"/>
      <point x="114" y="700"/>
      <point x="104" y="689"/>
      <point x="102" y="673" type="curve" smooth="yes"/>
      <point x="33" y="27" type="line" smooth="yes"/>
      <point x="31" y="12"/>
      <point x="40" y="0"/>
      <point x="59" y="0" type="curve" smooth="yes"/>
    </contour>
    <contour>
      <point x="86" y="45" type="line"/>
      <point x="151" y="655" type="line"/>
      <point x="494" y="655" type="line"/>
      <point x="430" y="45" type="line"/>
    </contour>
  </outline>
</glyph>
